<?xml version="1.0" encoding="utf-8"?>
<!-- Generator: Adobe Illustrator 16.0.0, SVG Export Plug-In . SVG Version: 6.00 Build 0)  -->
<!DOCTYPE svg PUBLIC "-//W3C//DTD SVG 1.1//EN" "http://www.w3.org/Graphics/SVG/1.1/DTD/svg11.dtd">
<svg version="1.1" id="Layer_1" xmlns="http://www.w3.org/2000/svg" xmlns:xlink="http://www.w3.org/1999/xlink" x="0px" y="0px"
	 width="48px" height="48px" viewBox="0 0 48 48" enable-background="new 0 0 48 48" xml:space="preserve">
<g>
	<path fill="#B9B9B9" d="M32.517,9.996c-0.353,0-0.64,0.284-0.64,0.637c0,0.355,0.287,0.639,0.64,0.639
		c2.245,0,4.077,1.829,4.077,4.078c0,0.352,0.283,0.639,0.636,0.639c0.356,0,0.64-0.287,0.64-0.639
		C37.869,12.398,35.467,9.996,32.517,9.996L32.517,9.996z M32.517,9.996"/>
	<path fill="#B9B9B9" d="M8.426,15.35c0,0.352,0.284,0.639,0.637,0.639c0.355,0,0.64-0.287,0.64-0.639
		c0-2.249,1.827-4.078,4.076-4.078c0.353,0,0.64-0.283,0.64-0.639c0-0.353-0.287-0.637-0.64-0.637
		C10.828,9.996,8.426,12.398,8.426,15.35L8.426,15.35z M8.426,15.35"/>
	<path fill="#B9B9B9" d="M33.459,5.281c-0.353,0-0.64,0.287-0.64,0.639c0,0.354,0.287,0.64,0.64,0.64
		c4.325,0,7.846,3.518,7.846,7.847c0,0.354,0.288,0.637,0.641,0.637c0.352,0,0.64-0.283,0.64-0.637
		C42.585,9.373,38.489,5.281,33.459,5.281L33.459,5.281z M33.459,5.281"/>
	<path fill="#B9B9B9" d="M13.473,5.92c0-0.352-0.284-0.639-0.636-0.639c-5.034,0-9.126,4.092-9.126,9.125
		c0,0.354,0.287,0.637,0.64,0.637S4.99,14.76,4.99,14.406c0-4.329,3.518-7.847,7.847-7.847C13.189,6.56,13.473,6.273,13.473,5.92
		L13.473,5.92z M13.473,5.92"/>
	<path fill="#B9B9B9" d="M35.792,33.975c-0.085-0.244-0.237-0.443-0.425-0.603c0.016-0.39,0.025-0.782,0.025-1.176
		c0-8.701-3.603-16.067-8.583-18.595c0.074-0.301,0.118-0.613,0.118-0.938c0-2.155-1.75-3.904-3.905-3.904
		c-2.158,0-3.908,1.749-3.908,3.904c0,0.325,0.044,0.638,0.119,0.938c-4.978,2.527-8.58,9.894-8.58,18.595
		c0,0.394,0.01,0.786,0.025,1.176c-0.187,0.159-0.343,0.358-0.424,0.603L8.405,39.51c-0.299,0.898,0.365,1.824,1.313,1.824h9.02
		c0.552,1.847,2.258,3.194,4.285,3.194c2.024,0,3.733-1.348,4.282-3.194h9.023c0.945,0,1.612-0.926,1.313-1.824L35.792,33.975z
		 M19.823,14.763l0.923-0.468l-0.25-1.004c-0.053-0.219-0.077-0.425-0.077-0.628c0-1.435,1.166-2.604,2.604-2.604
		c1.436,0,2.604,1.17,2.604,2.604c0,0.203-0.027,0.409-0.08,0.628L25.3,14.295l0.923,0.468c4.632,2.352,7.866,9.521,7.866,17.434
		c0,0.266-0.003,0.536-0.01,0.812H11.967c-0.01-0.275-0.013-0.546-0.013-0.812C11.954,24.284,15.192,17.114,19.823,14.763
		L19.823,14.763z M23.022,43.25c-1.306,0-2.432-0.789-2.928-1.916h5.855C25.456,42.461,24.33,43.25,23.022,43.25L23.022,43.25z
		 M36.415,40.013c-0.03,0.044-0.071,0.044-0.087,0.044H9.718c-0.019,0-0.057,0-0.087-0.044c-0.032-0.044-0.022-0.081-0.016-0.098
		l1.853-5.535c0.012-0.044,0.053-0.071,0.1-0.071h22.911c0.043,0,0.084,0.027,0.1,0.071l1.85,5.535
		C36.434,39.932,36.446,39.969,36.415,40.013L36.415,40.013z M36.415,40.013"/>
</g>
</svg>
