<?xml version="1.0" encoding="utf-8"?>
<!-- Generator: Adobe Illustrator 16.0.0, SVG Export Plug-In . SVG Version: 6.00 Build 0)  -->
<!DOCTYPE svg PUBLIC "-//W3C//DTD SVG 1.1//EN" "http://www.w3.org/Graphics/SVG/1.1/DTD/svg11.dtd">
<svg version="1.1" id="Layer_1" xmlns="http://www.w3.org/2000/svg" xmlns:xlink="http://www.w3.org/1999/xlink" x="0px" y="0px"
	 width="48px" height="48px" viewBox="0 0 48 48" enable-background="new 0 0 48 48" xml:space="preserve">
<g>
	<g>
		<defs>
			<rect id="SVGID_1_" x="14.77" y="2.518" width="21.405" height="42.964"/>
		</defs>
		<clipPath id="SVGID_2_">
			<use xlink:href="#SVGID_1_"  overflow="visible"/>
		</clipPath>
		<path clip-path="url(#SVGID_2_)" fill="#34AFE2" d="M34.439,19.279l-0.845-0.845c0.737-0.287,1.261-1.003,1.261-1.84v-2.689
			c0-1.089-0.887-1.975-1.975-1.975h-0.546c-0.65-1.676-1.909-3.083-3.513-3.899c-0.35-0.179-0.4-0.612-0.269-0.93
			c0.235-0.566,0.306-1.194,0.206-1.812c-0.23-1.422-1.439-2.578-2.873-2.747c-0.949-0.112-1.898,0.184-2.606,0.813
			c-0.709,0.629-1.116,1.534-1.116,2.481c0,0.449,0.089,0.884,0.263,1.294c0.151,0.354,0.025,0.743-0.292,0.906
			c-1.602,0.82-2.858,2.224-3.506,3.894h-0.54c-1.089,0-1.975,0.886-1.975,1.975v2.689c0,0.837,0.523,1.553,1.26,1.84l-0.845,0.845
			c-1.135,1.135-1.76,2.644-1.76,4.249v17.269c0,2.572,2.092,4.664,4.664,4.664h12.102c2.572,0,4.664-2.092,4.664-4.664V23.528
			C36.199,21.923,35.574,20.414,34.439,19.279L34.439,19.279z M22.71,9.158c0.914-0.467,1.291-1.551,0.878-2.521
			c-0.107-0.252-0.163-0.521-0.163-0.8c0-0.586,0.252-1.149,0.692-1.539c0.446-0.396,1.022-0.575,1.621-0.505
			c0.888,0.105,1.635,0.819,1.777,1.697c0.063,0.388,0.019,0.778-0.127,1.129c-0.408,0.987-0.038,2.076,0.861,2.535
			c1.181,0.603,2.137,1.589,2.713,2.777H20.002C20.577,10.747,21.531,9.762,22.71,9.158L22.71,9.158z M17.375,13.905
			c0-0.394,0.321-0.715,0.715-0.715h0.981c0.001,0,0.001,0,0.002,0s0.001,0,0.002,0h13.805c0.394,0,0.714,0.321,0.714,0.715v2.689
			c0,0.394-0.32,0.714-0.714,0.714H18.09c-0.394,0-0.715-0.32-0.715-0.714V13.905z M34.939,40.797c0,1.876-1.527,3.403-3.404,3.403
			H19.434c-1.877,0-3.403-1.527-3.403-3.403v-2.06h2.731c0.348,0,0.63-0.281,0.63-0.63c0-0.348-0.282-0.63-0.63-0.63h-2.731v-2.101
			h1.386c0.349,0,0.63-0.282,0.63-0.631c0-0.348-0.282-0.631-0.63-0.631h-1.386v-2.1h2.731c0.348,0,0.63-0.283,0.63-0.631
			s-0.282-0.631-0.63-0.631h-2.731v-2.101h1.386c0.349,0,0.63-0.282,0.63-0.63s-0.282-0.631-0.63-0.631h-1.386v-2.101h2.731
			c0.348,0,0.63-0.282,0.63-0.631c0-0.347-0.282-0.63-0.63-0.63h-2.731v-0.503c0-1.268,0.494-2.46,1.39-3.358l1.602-1.601h12.923
			l1.603,1.601c0.896,0.898,1.391,2.09,1.391,3.358V40.797z M34.939,40.797"/>
	</g>
	<path fill="#34AFE2" d="M32.881,25.377c-0.35,0-0.631,0.281-0.631,0.629v8.74c0,0.349,0.281,0.631,0.631,0.631
		c0.348,0,0.63-0.282,0.63-0.631v-8.74C33.511,25.658,33.229,25.377,32.881,25.377L32.881,25.377z M32.881,25.377"/>
	<path fill="#34AFE2" d="M31.646,21.18c-0.246,0.247-0.246,0.646,0,0.892c0.389,0.389,0.604,0.906,0.604,1.456
		c0,0.348,0.281,0.63,0.63,0.63s0.63-0.282,0.63-0.63c0-0.887-0.345-1.721-0.972-2.348C32.292,20.935,31.893,20.935,31.646,21.18
		L31.646,21.18z M31.646,21.18"/>
	<path fill="#34AFE2" d="M30.863,15.88h0.672c0.349,0,0.631-0.282,0.631-0.631c0-0.347-0.282-0.63-0.631-0.63h-0.672
		c-0.348,0-0.631,0.283-0.631,0.63C30.232,15.598,30.516,15.88,30.863,15.88L30.863,15.88z M30.863,15.88"/>
	<path fill="#34AFE2" d="M23.468,15.88h4.706c0.348,0,0.631-0.282,0.631-0.631c0-0.347-0.283-0.63-0.631-0.63h-4.706
		c-0.348,0-0.63,0.283-0.63,0.63C22.837,15.598,23.12,15.88,23.468,15.88L23.468,15.88z M23.468,15.88"/>
</g>
</svg>
