<?xml version="1.0" encoding="utf-8"?>
<!-- Generator: Adobe Illustrator 16.0.0, SVG Export Plug-In . SVG Version: 6.00 Build 0)  -->
<!DOCTYPE svg PUBLIC "-//W3C//DTD SVG 1.1//EN" "http://www.w3.org/Graphics/SVG/1.1/DTD/svg11.dtd">
<svg version="1.1" id="Layer_1" xmlns="http://www.w3.org/2000/svg" xmlns:xlink="http://www.w3.org/1999/xlink" x="0px" y="0px"
	 width="425.2px" height="425.2px" viewBox="0 0 425.2 425.2" enable-background="new 0 0 425.2 425.2" xml:space="preserve">
<rect x="0.474" y="0.108" opacity="0.1" fill="#F0EEE0" width="425.197" height="425.197"/>
<g opacity="0.1">
	<polygon fill="#2D2D2A" points="60.648,244.206 60.425,243.231 83.299,237.989 88.154,223.142 89.104,223.452 84.073,238.836 	"/>
</g>
<g opacity="0.1">
	<polygon fill="#2D2D2A" points="104.17,339.986 74.104,240.644 75.061,240.354 104.254,336.813 145.375,223.127 146.314,223.467 	
		"/>
</g>
<polygon opacity="0.1" fill="#2D2D2A" points="8.845,292.513 0.474,293.084 0.474,294.087 8.914,293.511 "/>
<g opacity="0.1">
	<polygon fill="#2D2D2A" points="104.178,325.276 77.073,239.97 78.026,239.667 104.247,322.192 136.944,233.334 137.882,233.68 	
		"/>
</g>
<g opacity="0.1">
	<polygon fill="#2D2D2A" points="104.177,312.999 81.552,238.938 82.508,238.646 104.248,309.808 127.153,245.195 128.096,245.529 	
		"/>
</g>
<g opacity="0.1">
	<polygon fill="#2D2D2A" points="104.812,298.418 85.597,231.237 86.559,230.962 104.843,294.893 118.312,250.816 119.268,251.109 	
		"/>
</g>
<g opacity="0.1">
	<polygon fill="#2D2D2A" points="104.813,282.771 89.638,224.792 90.606,224.538 104.841,278.927 113.782,246.677 114.746,246.944 	
		"/>
</g>
<g opacity="0.1">
	<polygon fill="#2D2D2A" points="104.781,267.946 97.485,231.969 98.466,231.77 104.874,263.372 109.729,243.6 110.699,243.838 	"/>
</g>
<g opacity="0.1">
	<polygon fill="#2D2D2A" points="54.233,241.064 53.974,240.1 80.039,233.096 84.201,219.526 85.157,219.819 80.833,233.918 	"/>
</g>
<g opacity="0.1">
	<polygon fill="#2D2D2A" points="49.795,238.892 49.51,237.934 77.127,229.731 80.276,215.97 81.251,216.192 77.972,230.524 	"/>
</g>
<g opacity="0.1">
	<polygon fill="#2D2D2A" points="45.613,236.848 45.314,235.893 74.153,226.856 77.061,213.03 78.039,213.236 75.012,227.636 	"/>
</g>
<g opacity="0.1">
	<polygon fill="#2D2D2A" points="39.746,233.982 39.438,233.031 70.712,222.925 71.801,208.28 72.798,208.354 71.66,223.669 	"/>
</g>
<g opacity="0.1">
	<polygon fill="#2D2D2A" points="32.813,230.604 32.507,229.652 64.746,219.296 66.438,203.343 67.432,203.448 65.671,220.05 
		65.361,220.148 	"/>
</g>
<g opacity="0.1">
	<polygon fill="#2D2D2A" points="29.431,228.924 29.05,227.998 57.233,216.406 60.042,197.453 61.031,197.6 58.14,217.115 	"/>
</g>
<g opacity="0.1">
	<polygon fill="#2D2D2A" points="25.51,226.95 25.005,226.087 53.609,209.376 53.937,191.921 54.937,191.94 54.598,209.957 	"/>
</g>
<g opacity="0.1">
	<polygon fill="#2D2D2A" points="21.748,225.071 21.164,224.259 45.002,207.132 47.443,191.852 48.43,192.009 45.924,207.701 	"/>
</g>
<g opacity="0.1">
	<polygon fill="#2D2D2A" points="17.528,222.999 16.919,222.206 40.409,204.191 39.095,191.984 40.089,191.877 41.464,204.643 	"/>
</g>
<g opacity="0.1">
	<polygon fill="#2D2D2A" points="253.538,253.239 253.278,252.274 282.348,244.449 249.595,198.553 317.302,166.758 
		317.728,167.664 251.104,198.949 283.998,245.041 	"/>
</g>
<g opacity="0.1">
	<polygon fill="#2D2D2A" points="261.271,256.119 261.013,255.152 288.56,247.823 257.278,199.532 315.568,173.653 315.975,174.567 
		258.755,199.97 290.147,248.435 	"/>
</g>
<g opacity="0.1">
	<polygon fill="#2D2D2A" points="268.484,258.777 268.145,257.838 293.947,248.499 265.879,200.492 313.336,182.576 
		313.689,183.512 267.34,201.009 295.416,249.03 	"/>
</g>
<g opacity="0.1">
	
		<rect x="284.522" y="244.138" transform="matrix(0.3616 0.9323 -0.9323 0.3616 420.7011 -102.2604)" fill="#2D2D2A" width="0.999" height="23.863"/>
</g>
<g opacity="0.1">
	
		<rect x="287.207" y="251.68" transform="matrix(0.4045 0.9145 -0.9145 0.4045 408.757 -108.517)" fill="#2D2D2A" width="0.999" height="15.874"/>
</g>
<g opacity="0.1">
	
		<rect x="289.824" y="259.243" transform="matrix(0.5056 0.8628 -0.8628 0.5056 370.6465 -120.3449)" fill="#2D2D2A" width="1.001" height="7.95"/>
</g>
<g opacity="0.1">
	<polygon fill="#2D2D2A" points="297.486,244.965 273.176,201.649 312.104,187.473 312.445,188.412 274.623,202.186 
		298.357,244.475 	"/>
</g>
<g opacity="0.1">
	<polygon fill="#2D2D2A" points="298.809,239.734 280.373,207.081 310.995,191.668 311.444,192.562 281.76,207.502 299.68,239.242 	
		"/>
</g>
<g opacity="0.1">
	<polygon fill="#2D2D2A" points="300.153,234.282 288.707,208.086 309.536,197.43 309.991,198.32 290,208.548 301.069,233.882 	"/>
</g>
<g opacity="0.1">
	<polygon fill="#2D2D2A" points="301.733,228.064 293.078,209.724 308.04,203.468 308.427,204.391 294.43,210.244 302.638,227.639 	
		"/>
</g>
<g opacity="0.1">
	<polygon fill="#2D2D2A" points="304.023,219.269 298.747,211.891 306.557,209.506 306.85,210.462 300.37,212.441 304.836,218.687 	
		"/>
</g>
<g opacity="0.1">
	<polygon fill="#2D2D2A" points="281.035,325.592 321.871,168.344 322.84,168.595 283.033,321.877 379.647,214.538 380.392,215.208 
			"/>
</g>
<g opacity="0.1">
	<polygon fill="#2D2D2A" points="291.266,307.891 325.192,172.305 326.163,172.548 293.207,304.251 375.701,212.939 
		376.443,213.609 	"/>
</g>
<g opacity="0.1">
	<polygon fill="#2D2D2A" points="298.567,294.871 328.806,176.604 329.774,176.853 300.55,291.152 371.853,211.384 372.599,212.05 	
		"/>
</g>
<g opacity="0.1">
	<polygon fill="#2D2D2A" points="305.685,280.514 332.165,180.6 333.132,180.855 307.722,276.727 367.574,209.651 368.32,210.317 	
		"/>
</g>
<g opacity="0.1">
	<polygon fill="#2D2D2A" points="312.376,265.198 336.849,186.15 337.804,186.446 314.649,261.238 363.462,207.979 364.198,208.655 
			"/>
</g>
<g opacity="0.1">
	<polygon fill="#2D2D2A" points="322.522,248.15 340.456,190.446 341.411,190.743 324.843,244.054 358.775,206.087 359.521,206.753 
			"/>
</g>
<g opacity="0.1">
	<polygon fill="#2D2D2A" points="331.457,233.399 343.475,194.046 344.432,194.338 333.908,228.799 353.939,204.152 
		354.715,204.783 	"/>
</g>
<g opacity="0.1">
	<polygon fill="#2D2D2A" points="175.037,188.442 135.867,188.442 102.079,165.947 21.537,179.157 21.375,178.17 102.306,164.897 
		136.17,187.443 175.037,187.443 	"/>
</g>
<g opacity="0.1">
	<polygon fill="#2D2D2A" points="169.877,194.692 133.386,194.692 102.074,172.953 25.339,185.635 25.176,184.649 102.311,171.9 
		133.7,193.692 169.877,193.692 	"/>
</g>
<g opacity="0.1">
	<polygon fill="#2D2D2A" points="131.968,204.453 102.037,177.928 27.679,189.63 27.523,188.642 102.348,176.867 102.524,177.023 
		132.295,203.407 165.02,199.506 165.138,200.499 	"/>
</g>
<g opacity="0.1">
	<polygon fill="#2D2D2A" points="130.352,210.661 102.032,183.583 54.528,192.422 54.345,191.439 102.353,182.505 130.692,209.602 
		160.17,205.365 160.313,206.355 	"/>
</g>
<g opacity="0.1">
	<polygon fill="#2D2D2A" points="128.18,218.901 101.998,188.483 58.35,195.935 58.182,194.95 102.387,187.402 128.548,217.796 
		154.626,212.042 154.842,213.019 	"/>
</g>
<g opacity="0.1">
	<polygon fill="#2D2D2A" points="121.436,246.83 63.271,194.904 63.938,194.158 121.306,245.374 145.451,214.564 146.238,215.182 	
		"/>
</g>
<g opacity="0.1">
	<polygon fill="#2D2D2A" points="121.446,241.324 121.036,240.953 69.056,193.914 69.727,193.173 121.296,239.84 139.102,215.595 
		139.908,216.187 	"/>
</g>
<g opacity="0.1">
	<polygon fill="#2D2D2A" points="121.456,234.828 74.577,192.974 75.243,192.228 121.287,233.336 132.879,216.973 133.696,217.551 	
		"/>
</g>
<g opacity="0.1">
	<polygon fill="#2D2D2A" points="121.448,228.591 80.431,191.975 81.097,191.229 121.294,227.112 127.961,218.053 128.767,218.645 	
		"/>
</g>
<g opacity="0.1">
	<polygon fill="#2D2D2A" points="121.421,221.615 85.931,191.042 86.583,190.284 121.321,220.209 125.458,215.474 126.21,216.132 	
		"/>
</g>
<g opacity="0.1">
	<polygon fill="#2D2D2A" points="121.39,215.546 91.518,190.09 92.166,189.33 121.352,214.2 122.993,212.633 123.683,213.355 	"/>
</g>
<g opacity="0.1">
	<polygon fill="#2D2D2A" points="136.655,256.668 152.332,214.698 153.268,215.048 138.171,255.469 273.837,238.297 
		273.962,239.288 	"/>
</g>
<g opacity="0.1">
	<polygon fill="#2D2D2A" points="143.15,252.357 157.754,208.141 158.704,208.454 144.603,251.145 270.482,233.587 270.621,234.577 
			"/>
</g>
<g opacity="0.1">
	<polygon fill="#2D2D2A" points="149.152,246.708 163.043,204.126 163.994,204.437 150.6,245.496 267.221,229.179 267.359,230.169 	
		"/>
</g>
<g opacity="0.1">
	<polygon fill="#2D2D2A" points="155.437,241.187 169.411,205.427 170.343,205.792 156.982,239.978 264.891,226.022 265.02,227.015 
			"/>
</g>
<g opacity="0.1">
	<polygon fill="#2D2D2A" points="160.939,236.993 177.021,206.692 177.905,207.161 162.732,235.747 262.258,222.601 
		262.389,223.593 	"/>
</g>
<g opacity="0.1">
	<polygon fill="#2D2D2A" points="168.964,232.497 182.307,208.058 183.185,208.537 170.79,231.242 259.822,219.178 259.957,220.168 
			"/>
</g>
<g opacity="0.1">
	<polygon fill="#2D2D2A" points="180.802,225.784 186.712,209.059 187.656,209.392 182.282,224.599 257.172,215.585 
		257.291,216.576 	"/>
</g>
<g opacity="0.1">
	<polygon fill="#2D2D2A" points="191.025,219.573 191.025,210.131 192.025,210.131 192.025,218.382 214.796,214.381 214.97,215.365 
			"/>
</g>
<g opacity="0.1">
	<polygon fill="#2D2D2A" points="257.736,189.805 248.198,140.372 214.984,164.291 214.758,164.231 122.107,140.216 134.3,180.583 
		133.343,180.872 120.635,138.802 214.781,163.205 248.884,138.646 258.719,189.615 	"/>
</g>
<g opacity="0.1">
	<polygon fill="#2D2D2A" points="255.528,190.763 246.566,146.834 219.526,172.987 128.387,146.583 139.981,182.768 
		139.029,183.072 126.862,145.1 219.247,171.865 247.182,144.848 256.509,190.563 	"/>
</g>
<g opacity="0.1">
	<polygon fill="#2D2D2A" points="252.595,192.044 244.251,156.377 219.517,179.4 134.152,153.294 146.307,182.854 145.382,183.234 
		132.423,151.72 219.257,178.275 244.831,154.47 253.569,191.817 	"/>
</g>
<g opacity="0.1">
	<polygon fill="#2D2D2A" points="248.855,193.649 242.577,164.735 221.346,185.4 144.713,162.198 152.676,182.739 151.743,183.101 
		143.04,160.647 221.07,184.273 243.171,162.76 249.832,193.438 	"/>
</g>
<g opacity="0.1">
	<polygon fill="#2D2D2A" points="244.774,195.396 240.664,173.441 222.679,191.162 222.393,191.072 152.722,169.259 
		158.008,182.737 157.077,183.103 151.03,167.681 222.405,190.028 241.301,171.411 245.757,195.212 	"/>
</g>
<g opacity="0.1">
	<polygon fill="#2D2D2A" points="228.544,215.362 168.957,202.606 185.524,182.986 186.288,183.631 170.797,201.977 
		228.753,214.384 	"/>
</g>
<g opacity="0.1">
	<polygon fill="#2D2D2A" points="234.783,214.13 176.501,199.363 191.167,184.3 191.883,184.997 178.426,198.819 235.029,213.161 	
		"/>
</g>
<g opacity="0.1">
	<polygon fill="#2D2D2A" points="238.091,213.474 184.978,197.773 196.278,185.953 197,186.644 186.833,197.279 238.374,212.515 	
		"/>
</g>
<g opacity="0.1">
	<polygon fill="#2D2D2A" points="237.688,209.928 192.18,195.51 201.407,187.564 202.06,188.322 194.19,195.098 236.563,208.522 
		234.521,184.69 235.518,184.605 	"/>
</g>
<g opacity="0.1">
	<polygon fill="#2D2D2A" points="232.469,204.625 198.946,194.763 205.316,188.843 205.997,189.575 200.913,194.299 
		231.281,203.234 229.547,189.774 230.539,189.646 	"/>
</g>
<g opacity="0.1">
	<polygon fill="#2D2D2A" points="229.317,199.791 207.504,193.846 209.744,190.391 210.583,190.935 209.088,193.241 227.979,198.39 
		226.711,192.71 227.688,192.492 	"/>
</g>
<polygon opacity="0.1" fill="#2D2D2A" points="56.128,71.375 55.763,70.444 0.474,92.134 0.474,93.208 "/>
<polygon opacity="0.1" fill="#2D2D2A" points="409.74,99.454 425.663,93.208 425.663,92.134 408.396,98.907 425.663,137.273 
	425.663,134.839 "/>
<g opacity="0.1">
	<polygon fill="#2D2D2A" points="159.916,145.906 158.925,145.776 162.928,115.271 208.158,136.394 237.848,100.681 
		238.617,101.321 208.434,137.626 163.741,116.754 	"/>
</g>
<g opacity="0.1">
	<polygon fill="#2D2D2A" points="165.578,147.313 164.58,147.246 166.218,122.658 209.094,142.73 243.189,103.592 243.943,104.249 
		209.353,143.955 167.118,124.184 	"/>
</g>
<g opacity="0.1">
	<polygon fill="#2D2D2A" points="210.7,149.104 170.377,130.46 170.377,148.499 169.377,148.499 169.377,128.896 210.464,147.894 
		248.979,106.74 249.709,107.424 	"/>
</g>
<g opacity="0.1">
	<polygon fill="#2D2D2A" points="212.19,155.286 175.537,137.802 175.537,149.811 174.537,149.811 174.537,136.217 211.947,154.063 
		252.711,108.793 253.454,109.462 	"/>
</g>
<g opacity="0.1">
	<polygon fill="#2D2D2A" points="204.081,157.693 180.002,144.367 182.022,151.325 181.062,151.604 178.366,142.318 
		204.565,156.818 	"/>
</g>
<g opacity="0.1">
	
		<rect x="244.134" y="107.194" transform="matrix(0.7857 0.6186 -0.6186 0.7857 132.12 -123.7214)" fill="#2D2D2A" width="0.999" height="43.282"/>
</g>
<g opacity="0.1">
	<polygon fill="#2D2D2A" points="261.479,183.507 261.102,182.581 329.838,154.619 259.659,118.081 260.12,117.195 332.217,154.73 	
		"/>
</g>
<g opacity="0.1">
	<polygon fill="#2D2D2A" points="260.062,177.953 259.718,177.014 321.105,154.591 257.625,120.961 258.094,120.078 
		323.559,154.759 	"/>
</g>
<g opacity="0.1">
	<polygon fill="#2D2D2A" points="259.177,172.689 258.837,171.749 312.252,152.432 255.589,123.867 256.04,122.975 314.773,152.583 
			"/>
</g>
<g opacity="0.1">
	<polygon fill="#2D2D2A" points="258.024,167.251 257.694,166.308 299.725,151.585 252.855,127.744 253.309,126.852 
		302.264,151.755 	"/>
</g>
<g opacity="0.1">
	<polygon fill="#2D2D2A" points="257.392,161.896 257.071,160.949 288.608,150.304 250.963,135.42 251.33,134.491 291.515,150.378 	
		"/>
</g>
<g opacity="0.1">
	<polygon fill="#2D2D2A" points="255.967,157.561 255.662,156.608 275.616,150.229 251.909,139.968 252.306,139.05 278.46,150.37 	
		"/>
</g>
<g opacity="0.1">
	<polygon fill="#2D2D2A" points="254.955,152.996 254.742,152.019 263.226,150.166 253.263,146.308 253.624,145.375 
		266.685,150.433 	"/>
</g>
<g opacity="0.1">
	<polygon fill="#2D2D2A" points="354.267,197.257 353.96,196.927 321.965,162.387 322.699,161.708 354.388,195.917 404.712,158.25 
		405.312,159.05 	"/>
</g>
<g opacity="0.1">
	<polygon fill="#2D2D2A" points="355.603,190.384 327.729,159.896 328.468,159.221 355.726,189.036 400.238,155.293 400.842,156.09 
			"/>
</g>
<g opacity="0.1">
	<polygon fill="#2D2D2A" points="356.944,185.342 332.309,157.587 333.057,156.923 357.05,183.955 395.406,152.123 396.045,152.892 
			"/>
</g>
<g opacity="0.1">
	<polygon fill="#2D2D2A" points="386.661,152.883 371.703,139.716 375.53,99.594 320.436,89.96 320.607,88.975 376.614,98.768 
		372.748,139.303 387.321,152.132 	"/>
</g>
<g opacity="0.1">
	<polygon fill="#2D2D2A" points="383.135,156.07 365.909,141.208 371.656,102.773 313.443,94.631 313.582,93.641 372.795,101.923 
		366.979,140.811 383.788,155.313 	"/>
</g>
<g opacity="0.1">
	<polygon fill="#2D2D2A" points="379.758,159.076 358.581,146.08 358.661,145.73 367.342,107.493 308.155,98.146 308.312,97.158 
		368.553,106.671 359.716,145.603 380.281,158.224 	"/>
</g>
<g opacity="0.1">
	<polygon fill="#2D2D2A" points="376.859,161.858 353.751,148.747 363.059,111.158 304.805,100.367 304.986,99.383 364.285,110.368 
		354.903,148.251 377.354,160.988 	"/>
</g>
<g opacity="0.1">
	<polygon fill="#2D2D2A" points="373.312,165.036 349.667,150.573 359.616,113.648 297.334,105.363 297.467,104.372 
		360.878,112.808 350.827,150.11 373.833,164.184 	"/>
</g>
<g opacity="0.1">
	<polygon fill="#2D2D2A" points="370.924,167.216 344.927,152.762 353.147,116.93 293.016,108.234 293.158,107.245 354.364,116.096 
		346.069,152.253 371.41,166.342 	"/>
</g>
<g opacity="0.1">
	<polygon fill="#2D2D2A" points="368.962,169.032 340.851,155.98 347.893,119.942 286.888,112.324 287.011,111.332 349.08,119.083 
		348.977,119.608 341.981,155.403 369.384,168.125 	"/>
</g>
<g opacity="0.1">
	
		<rect x="343.263" y="166.063" transform="matrix(0.9281 0.3723 -0.3723 0.9281 87.5502 -120.2972)" fill="#2D2D2A" width="24.046" height="0.999"/>
</g>
<g opacity="0.1">
	
		<rect x="351.371" y="171.201" transform="matrix(0.9563 0.2924 -0.2924 0.9563 65.8369 -97.076)" fill="#2D2D2A" width="12.576" height="0.999"/>
</g>
<g opacity="0.1">
	<polygon fill="#2D2D2A" points="359.125,178.313 337.141,155.583 343.532,123.111 281.974,115.598 282.095,114.605 
		344.722,122.249 338.223,155.264 359.172,176.924 390.352,148.803 391.021,149.545 	"/>
</g>
<g opacity="0.1">
	<polygon fill="#2D2D2A" points="334.641,153.61 333.668,153.376 340.385,125.345 278.168,118.134 278.283,117.142 341.619,124.482 
			"/>
</g>
<g opacity="0.1">
	<polygon fill="#2D2D2A" points="329.771,150.967 328.809,150.696 334.845,129.269 278.172,123.177 278.279,122.183 
		336.128,128.401 	"/>
</g>
<g opacity="0.1">
	<polygon fill="#2D2D2A" points="324.95,148.298 323.974,148.08 327.489,132.337 286.231,127.795 286.341,126.801 328.708,131.465 	
		"/>
</g>
<g opacity="0.1">
	<polygon fill="#2D2D2A" points="321.014,145.928 320.029,145.754 321.747,136.005 296.088,133.189 296.197,132.195 
		322.917,135.127 	"/>
</g>
<g opacity="0.1">
	<polygon fill="#2D2D2A" points="318.015,144.387 317.015,144.387 317.015,139.685 303.479,137.248 303.657,136.263 
		318.015,138.849 	"/>
</g>
<polygon opacity="0.1" fill="#2D2D2A" points="11.063,258.193 3.908,288.587 0.474,288.706 0.474,289.707 4.325,289.573 
	4.707,289.56 12.035,258.422 "/>
<polygon opacity="0.1" fill="#2D2D2A" points="424.829,284.498 320.511,286.834 320.532,287.834 425.563,285.482 425.663,285.173 
	425.663,281.907 "/>
<polygon opacity="0.1" fill="#2D2D2A" points="8.324,257.519 0.474,281.907 0.474,285.173 9.275,257.825 "/>
<polygon opacity="0.1" fill="#2D2D2A" points="421.612,280.24 326.956,280.349 326.958,281.349 421.997,281.24 422.38,281.24 
	425.663,269.003 425.663,265.141 "/>
<polygon opacity="0.1" fill="#2D2D2A" points="2.851,256.28 0.474,265.141 0.474,269.003 3.818,256.54 "/>
<g opacity="0.1">
	<polygon fill="#2D2D2A" points="424.722,255.483 417.637,276.716 330.229,276.716 330.229,277.716 418.357,277.716 
		425.663,255.823 425.663,255.797 	"/>
	<polygon fill="#2D2D2A" points="425.663,255.797 425.663,255.823 425.671,255.8 	"/>
</g>
<g opacity="0.1">
	<polygon fill="#2D2D2A" points="416.105,274.503 334.835,272.59 334.858,271.59 415.221,273.481 417.577,253.938 418.569,254.057 	
		"/>
</g>
<g opacity="0.1">
	<polygon fill="#2D2D2A" points="413.677,270.511 413.145,270.492 339.131,267.813 339.168,266.813 412.649,269.474 
		412.201,252.771 413.201,252.743 	"/>
</g>
<g opacity="0.1">
	<polygon fill="#2D2D2A" points="409.568,266.185 343.481,262.975 343.53,261.977 408.568,265.136 408.568,251.751 409.568,251.751 
			"/>
</g>
<g opacity="0.1">
	<polygon fill="#2D2D2A" points="404.997,261.731 346.879,259.205 346.922,258.205 403.997,260.688 403.997,250.862 
		404.997,250.862 	"/>
</g>
<g opacity="0.1">
	<polygon fill="#2D2D2A" points="400.263,256.927 399.812,256.91 350.661,255.009 350.7,254.009 399.399,255.894 400.246,249.924 
		401.236,250.064 	"/>
</g>
<g opacity="0.1">
	<polygon fill="#2D2D2A" points="395.669,253.276 354.299,250.959 354.355,249.961 394.993,252.237 396.257,248.89 397.192,249.243 
			"/>
</g>
<g opacity="0.1">
	<polygon fill="#2D2D2A" points="339.548,359.011 279.01,338.632 320.148,292.521 320.895,293.188 280.764,338.167 339.866,358.064 
			"/>
</g>
<g opacity="0.1">
	<polygon fill="#2D2D2A" points="341.77,355.659 284.824,336.714 325.38,292.673 326.116,293.351 286.607,336.253 342.086,354.71 	
		"/>
</g>
<g opacity="0.1">
	<polygon fill="#2D2D2A" points="344.186,352.018 291.337,334.97 330.66,292.515 331.395,293.194 293.135,334.499 344.492,351.066 	
		"/>
</g>
<g opacity="0.1">
	<polygon fill="#2D2D2A" points="346.13,349.068 298.68,332.933 335.521,291.987 336.265,292.655 300.438,332.474 346.452,348.121 	
		"/>
</g>
<g opacity="0.1">
	<polygon fill="#2D2D2A" points="348.847,344.963 305.811,330.291 341.563,291.98 342.293,292.662 307.596,329.844 349.169,344.016 
			"/>
</g>
<g opacity="0.1">
	<polygon fill="#2D2D2A" points="351.999,340.233 312.917,328.484 346.532,291.603 347.27,292.276 314.726,327.985 352.286,339.276 
			"/>
</g>
<g opacity="0.1">
	<polygon fill="#2D2D2A" points="354.132,336.916 324.434,324.296 351.758,291.419 352.527,292.058 326.063,323.901 
		354.522,335.996 	"/>
</g>
<g opacity="0.1">
	<polygon fill="#2D2D2A" points="356.642,333.174 331.18,323.971 356.417,291.632 357.206,292.247 332.816,323.498 356.981,332.232 
			"/>
</g>
<g opacity="0.1">
	<polygon fill="#2D2D2A" points="359.907,328.256 337.833,320.7 361.358,291.625 362.136,292.254 339.511,320.218 360.231,327.311 	
		"/>
</g>
<g opacity="0.1">
	<polygon fill="#2D2D2A" points="363.743,322.69 343.379,319.116 367.57,291.409 368.324,292.067 345.299,318.438 363.917,321.706 	
		"/>
</g>
<g opacity="0.1">
	<polygon fill="#2D2D2A" points="366.875,317.934 351.137,316.479 373.117,290.692 373.879,291.34 353.148,315.66 366.967,316.938 	
		"/>
</g>
<g opacity="0.1">
	<polygon fill="#2D2D2A" points="368.88,314.588 359.335,312.646 377.325,290.699 378.099,291.333 361.159,311.997 369.079,313.607 
			"/>
</g>
<g opacity="0.1">
	<polygon fill="#2D2D2A" points="364.045,246.435 363.299,245.77 389.85,215.99 355.09,201.226 355.48,200.306 391.523,215.615 	"/>
</g>
<g opacity="0.1">
	<polygon fill="#2D2D2A" points="368.313,247.014 367.581,246.332 395.894,215.961 358.934,198.398 359.363,197.495 
		397.556,215.645 	"/>
</g>
<g opacity="0.1">
	<polygon fill="#2D2D2A" points="375.851,246.982 375.065,246.363 399.772,215.039 362.54,195.748 363.001,194.86 401.307,214.707 	
		"/>
</g>
<g opacity="0.1">
	<polygon fill="#2D2D2A" points="380.426,247.676 379.613,247.092 403.769,213.499 367.145,192.363 367.645,191.498 
		405.226,213.185 	"/>
</g>
<g opacity="0.1">
	<polygon fill="#2D2D2A" points="387.42,247.642 386.563,247.126 407.315,212.616 370.899,189.601 371.435,188.755 408.677,212.292 
			"/>
</g>
<g opacity="0.1">
	
		<rect x="372.053" y="197.513" transform="matrix(0.8384 0.5451 -0.5451 0.8384 171.5571 -182.5224)" fill="#2D2D2A" width="42.977" height="1"/>
</g>
<g opacity="0.1">
	
		<rect x="242.598" y="205.961" transform="matrix(0.1852 0.9827 -0.9827 0.1852 404.5182 -74.9732)" fill="#2D2D2A" width="9.748" height="1"/>
</g>
<g opacity="0.1">
	<polygon fill="#2D2D2A" points="122.384,415.925 149.401,353.209 150.319,353.605 124.292,414.022 288.031,344.127 
		288.424,345.047 	"/>
</g>
<g opacity="0.1">
	<polygon fill="#2D2D2A" points="130.351,408.267 153.106,356.159 154.022,356.56 132.279,406.349 281.837,342.04 282.231,342.958 	
		"/>
</g>
<g opacity="0.1">
	<polygon fill="#2D2D2A" points="139.333,400.303 157.75,359.851 158.66,360.265 141.337,398.314 273.695,339.298 274.104,340.212 	
		"/>
</g>
<g opacity="0.1">
	<polygon fill="#2D2D2A" points="149.37,391.63 161.612,362.943 162.532,363.336 151.299,389.657 267.158,337.097 267.572,338.007 	
		"/>
</g>
<g opacity="0.1">
	<polygon fill="#2D2D2A" points="156.169,385.749 166.312,366.637 167.196,367.105 158.5,383.491 258.788,334.285 259.229,335.184 	
		"/>
</g>
<g opacity="0.1">
	<polygon fill="#2D2D2A" points="165.158,377.803 169.65,369.299 170.534,369.766 167.511,375.488 252.764,332.257 253.217,333.149 
			"/>
</g>
<g opacity="0.1">
	<polygon fill="#2D2D2A" points="180.88,365.34 180.431,364.445 243.442,332.8 218.399,324.573 218.712,323.624 246.056,332.606 	
		"/>
</g>
<g opacity="0.1">
	<polygon fill="#2D2D2A" points="188.697,356.918 188.271,356.014 235.653,333.732 215.949,327.21 216.264,326.261 238.347,333.57 	
		"/>
</g>
<g opacity="0.1">
	<polygon fill="#2D2D2A" points="195.998,349.053 195.596,348.137 225.946,334.798 213.226,330.542 213.543,329.593 228.72,334.671 
			"/>
</g>
<g opacity="0.1">
	<polygon fill="#2D2D2A" points="202.5,342.057 202.089,341.145 216.063,334.835 210.42,333.183 210.702,332.224 218.937,334.634 	
		"/>
</g>
<polygon opacity="0.1" fill="#2D2D2A" points="14.139,165.637 13.236,165.208 0.474,192.065 0.474,194.394 "/>
<polygon opacity="0.1" fill="#2D2D2A" points="401.258,245.757 425.663,194.394 425.663,192.065 399.822,246.447 425.663,252.488 
	425.663,251.462 "/>
<polygon opacity="0.1" fill="#2D2D2A" points="0.474,251.462 0.474,252.488 23.897,257.964 12.25,295.619 13.205,295.914 
	25.169,257.234 "/>
<polygon opacity="0.1" fill="#2D2D2A" points="20.745,176.897 19.843,176.468 0.474,217.136 0.474,219.461 "/>
<polygon opacity="0.1" fill="#2D2D2A" points="0.474,244.207 0.474,245.242 37.38,255.084 18.969,300.375 19.895,300.752 
	38.733,254.41 "/>
<polygon opacity="0.1" fill="#2D2D2A" points="415.206,241.418 425.663,219.461 425.663,217.136 413.786,242.074 425.663,245.242 
	425.663,244.207 "/>
<polygon opacity="0.1" fill="#2D2D2A" points="22.812,180.401 21.899,179.989 0.474,227.385 0.474,229.813 "/>
<polygon opacity="0.1" fill="#2D2D2A" points="420.942,240.255 425.663,229.813 425.663,227.385 419.79,240.376 419.55,240.909 
	425.663,242.592 425.663,241.554 "/>
<polygon opacity="0.1" fill="#2D2D2A" points="0.474,241.554 0.474,242.592 43.129,254.329 23.025,303.277 23.951,303.657 
	44.269,254.188 44.483,253.666 "/>
<polygon opacity="0.1" fill="#2D2D2A" points="424.483,239.106 425.663,239.448 425.663,236.719 "/>
<polygon opacity="0.1" fill="#2D2D2A" points="0.72,238.479 26.385,186.52 25.488,186.077 0.474,236.719 0.474,239.448 
	49.104,253.521 25.695,305.167 26.605,305.579 50.253,253.408 50.493,252.883 "/>
<polygon opacity="0.1" fill="#2D2D2A" points="29.529,308.206 28.631,307.769 55.237,253.073 5.113,238.734 13.226,220.783 
	14.138,221.195 6.501,238.092 56.657,252.44 "/>
<polygon opacity="0.1" fill="#2D2D2A" points="32.462,309.799 31.571,309.342 60.795,252.35 12.996,236.672 18.977,223.473 
	19.887,223.885 14.367,236.068 62.219,251.764 61.953,252.285 "/>
<polygon opacity="0.1" fill="#2D2D2A" points="34.42,311.216 33.543,310.737 65.588,252.023 18.759,235.159 23.019,225.449 
	23.935,225.852 20.104,234.581 67.025,251.479 66.745,251.99 "/>
<polygon opacity="0.1" fill="#2D2D2A" points="71.027,249.385 24.561,233.801 27.541,227.634 28.441,228.069 25.955,233.213 
	71.346,248.438 "/>
<polygon opacity="0.1" fill="#2D2D2A" points="31.027,256.034 15.364,297.813 16.3,298.164 32.367,255.31 0.474,248.165 
	0.474,249.189 "/>
<polygon opacity="0.1" fill="#2D2D2A" points="407.544,244.507 407.278,245.071 425.663,249.189 425.663,248.165 408.714,244.368 
	425.663,208.284 425.663,205.933 "/>
<rect x="29.657" y="197.37" transform="matrix(0.8889 0.4581 -0.4581 0.8889 96.4247 8.7579)" opacity="0.1" fill="#2D2D2A" width="1" height="11.589"/>
<g opacity="0.1">
	<polygon fill="#2D2D2A" points="43.846,168.412 25.479,114.132 86.028,130.595 106.075,98.283 106.925,98.81 86.485,131.755 
		27.028,115.589 44.793,168.092 	"/>
</g>
<g opacity="0.1">
	<polygon fill="#2D2D2A" points="49.183,167.792 31.861,119.778 89.01,135.674 107.155,103.674 108.025,104.167 89.495,136.846 
		33.458,121.26 50.123,167.453 	"/>
</g>
<g opacity="0.1">
	<polygon fill="#2D2D2A" points="55.481,167.064 38.761,124.862 91.601,138.928 109.001,108.877 109.867,109.378 92.083,140.09 
		40.422,126.338 56.411,166.696 	"/>
</g>
<g opacity="0.1">
	<polygon fill="#2D2D2A" points="61.045,166.415 47.111,132.711 94.246,142.777 110.4,113.94 111.272,114.429 94.758,143.908 
		48.762,134.086 61.969,166.033 	"/>
</g>
<g opacity="0.1">
	<polygon fill="#2D2D2A" points="64.743,165.605 53.614,137.278 97.309,148.419 112.15,120.286 113.035,120.753 97.826,149.583 
		55.259,138.729 65.674,165.24 	"/>
</g>
<g opacity="0.1">
	<polygon fill="#2D2D2A" points="70.729,165.285 60.641,142.627 100.495,151.934 114.034,127.059 114.912,127.537 101.009,153.081 
		62.373,144.058 71.643,164.879 	"/>
</g>
<g opacity="0.1">
	<polygon fill="#2D2D2A" points="80.302,164.144 75.146,151.752 104.464,159.86 117.435,139.243 118.282,139.775 104.915,161.022 
		76.858,153.263 81.225,163.76 	"/>
</g>
<g opacity="0.1">
	<polygon fill="#2D2D2A" points="85.008,163.769 80.854,156.637 96.541,161.631 96.237,162.584 83.025,158.378 85.872,163.266 	"/>
</g>
<g opacity="0.1">
	
		<rect x="113.68" y="144.434" transform="matrix(0.8742 0.4855 -0.4855 0.8742 89.9138 -35.8607)" fill="#2D2D2A" width="1" height="22.395"/>
</g>
<g opacity="0.1">
	
		<rect x="116.42" y="150.638" transform="matrix(0.8801 0.4747 -0.4747 0.8801 89.8557 -36.3567)" fill="#2D2D2A" width="1" height="18.226"/>
</g>
<g opacity="0.1">
	
		<rect x="118.948" y="156.295" transform="matrix(0.8909 0.4542 -0.4542 0.8909 87.3088 -36.4147)" fill="#2D2D2A" width="1" height="14.446"/>
</g>
<g opacity="0.1">
	
		<rect x="121.578" y="161.118" transform="matrix(0.9476 0.3194 -0.3194 0.9476 59.7205 -30.2513)" fill="#2D2D2A" width="1" height="11.613"/>
</g>
<g opacity="0.1">
	<polygon fill="#2D2D2A" points="86.578,123.011 38.259,112.286 74.467,42.722 75.354,43.184 39.747,111.592 86.795,122.034 	"/>
</g>
<g opacity="0.1">
	<polygon fill="#2D2D2A" points="88.788,119.368 44.766,110.204 77.393,44.711 78.288,45.158 46.24,109.49 88.992,118.388 	"/>
</g>
<g opacity="0.1">
	<polygon fill="#2D2D2A" points="90.844,115.968 49.59,107.438 80.804,47.009 81.692,47.468 51.083,106.726 91.046,114.988 	"/>
</g>
<g opacity="0.1">
	<polygon fill="#2D2D2A" points="92.998,112.432 54.735,105.721 84.79,49.694 85.671,50.167 56.271,104.975 93.17,111.446 	"/>
</g>
<g opacity="0.1">
	<polygon fill="#2D2D2A" points="94.691,109.619 60.74,103.212 88.45,52.166 89.329,52.643 62.273,102.483 94.876,108.637 	"/>
</g>
<g opacity="0.1">
	<polygon fill="#2D2D2A" points="96.504,106.626 67.246,101.373 91.641,54.334 92.528,54.794 68.759,100.629 96.681,105.643 	"/>
</g>
<g opacity="0.1">
	<polygon fill="#2D2D2A" points="98.716,102.984 73.55,98.933 94.334,56.171 95.233,56.608 75.037,98.16 98.875,101.997 	"/>
</g>
<g opacity="0.1">
	<polygon fill="#2D2D2A" points="100.375,100.217 79.93,96.385 98.347,58.882 99.245,59.322 81.408,95.645 100.559,99.235 	"/>
</g>
<g opacity="0.1">
	<polygon fill="#2D2D2A" points="102,97.487 87.292,94.032 101.657,61.146 102.573,61.546 88.688,93.333 102.229,96.514 	"/>
</g>
<g opacity="0.1">
	<polygon fill="#2D2D2A" points="103.603,94.86 94.12,92.886 104.711,63.251 105.653,63.588 95.448,92.141 103.807,93.882 	"/>
</g>
<g opacity="0.1">
	<polygon fill="#2D2D2A" points="104.579,92.948 99.863,90.247 108.104,65.557 109.053,65.874 101.071,89.786 105.076,92.08 	"/>
</g>
<g opacity="0.1">
	<polygon fill="#2D2D2A" points="113,109.306 104.655,87.414 109.925,69.089 137.624,88.082 137.058,88.906 110.503,70.698 
		105.709,87.37 113.934,108.95 	"/>
</g>
<g opacity="0.1">
	<polygon fill="#2D2D2A" points="116.134,106.614 108.05,87.047 111.711,74.084 135.121,90.247 134.553,91.07 112.293,75.702 
		109.107,86.986 117.058,106.232 	"/>
</g>
<g opacity="0.1">
	<polygon fill="#2D2D2A" points="119.043,104.142 110.826,87.53 114.255,79.592 132.415,92.102 131.848,92.925 114.69,81.106 
		111.928,87.502 119.939,103.699 	"/>
</g>
<g opacity="0.1">
	<polygon fill="#2D2D2A" points="121.3,102.174 114.958,88.406 116.379,84.833 129.475,95.167 128.855,95.953 116.813,86.45 
		116.046,88.376 122.208,101.756 	"/>
</g>
<g opacity="0.1">
	<polygon fill="#2D2D2A" points="123.898,99.952 119.024,90.324 127.394,96.968 126.772,97.751 121.979,93.946 124.791,99.5 	"/>
</g>
<g opacity="0.1">
	<polygon fill="#2D2D2A" points="152.115,143.938 151.128,143.78 162.781,71.223 111.96,117.396 111.288,116.655 164.221,68.564 	
		"/>
</g>
<g opacity="0.1">
	<polygon fill="#2D2D2A" points="148.62,143.058 147.635,142.884 158.667,80.293 113.492,122.886 112.805,122.159 160.174,77.497 	
		"/>
</g>
<g opacity="0.1">
	<polygon fill="#2D2D2A" points="144.368,141.984 143.385,141.796 152.903,91.999 114.333,125.975 113.671,125.225 154.433,89.318 	
		"/>
</g>
<g opacity="0.1">
	<polygon fill="#2D2D2A" points="140.947,141.113 139.965,140.928 147.238,102.348 115.584,130.481 114.92,129.734 148.764,99.654 	
		"/>
</g>
<g opacity="0.1">
	<polygon fill="#2D2D2A" points="74.716,164.779 68.61,147.805 102.63,155.687 115.842,133.017 143.65,109.593 136.772,140.07 
		135.797,139.851 142.02,112.273 116.553,133.725 103.124,156.828 70.172,149.193 75.658,164.44 	"/>
</g>
<g opacity="0.1">
	<polygon fill="#2D2D2A" points="133.777,139.302 132.798,139.096 136.748,120.321 119.789,136.137 119.107,135.406 
		138.377,117.435 	"/>
</g>
<g opacity="0.1">
	<polygon fill="#2D2D2A" points="130.789,138.585 129.831,138.298 132.303,130.055 124.267,137.194 123.603,136.447 
		134.272,126.967 	"/>
</g>
<g opacity="0.1">
	<polygon fill="#2D2D2A" points="209.409,127.755 160.946,106.436 168.259,61.266 169.247,61.426 162.056,105.833 209.812,126.84 	
		"/>
</g>
<g opacity="0.1">
	<polygon fill="#2D2D2A" points="217.233,119.345 170.441,101.321 178.605,52.322 179.592,52.486 171.561,100.681 217.593,118.411 	
		"/>
</g>
<g opacity="0.1">
	<polygon fill="#2D2D2A" points="223.383,112.4 181.192,94.679 188.411,51.447 189.397,51.612 182.309,94.063 223.77,111.478 	"/>
</g>
<g opacity="0.1">
	<polygon fill="#2D2D2A" points="221.409,106.598 186.2,92.453 191.327,56.333 192.317,56.473 187.301,91.817 221.782,105.671 	"/>
</g>
<g opacity="0.1">
	<polygon fill="#2D2D2A" points="217.604,100.202 189.234,91.001 194.288,61.262 195.274,61.43 190.365,90.316 217.913,99.25 	"/>
</g>
<g opacity="0.1">
	<polygon fill="#2D2D2A" points="214.39,94.844 193.637,87.695 197.529,66.666 198.513,66.848 194.777,87.03 214.716,93.898 	"/>
</g>
<g opacity="0.1">
	<polygon fill="#2D2D2A" points="211.474,89.946 198.26,85.994 200.632,71.861 201.619,72.026 199.393,85.289 211.76,88.988 	"/>
</g>
<g opacity="0.1">
	<polygon fill="#2D2D2A" points="209.031,85.931 202.068,83.032 203.689,76.905 204.656,77.161 203.258,82.444 209.416,85.008 	"/>
</g>
<g opacity="0.1">
	<polygon fill="#2D2D2A" points="273.94,106.712 235.979,87.91 227.56,91.273 203.363,55.062 204.194,54.506 227.94,90.044 
		236.021,86.815 273.858,105.557 326.476,69.481 327.042,70.306 	"/>
</g>
<g opacity="0.1">
	<polygon fill="#2D2D2A" points="273.926,91.248 240.875,72.508 232.332,76.655 224.057,64.634 224.881,64.066 232.668,75.38 
		240.91,71.379 241.14,71.508 273.873,90.069 317.229,60.033 317.8,60.855 	"/>
</g>
<g opacity="0.1">
	<polygon fill="#2D2D2A" points="234.745,72.536 230.863,67.802 231.637,67.168 235.067,71.351 238.059,70.244 238.406,71.182 	"/>
</g>
<g opacity="0.1">
	<polygon fill="#2D2D2A" points="273.923,86.942 252.831,74.703 253.333,73.837 273.876,85.758 314.771,57.518 315.339,58.341 	"/>
</g>
<g opacity="0.1">
	<polygon fill="#2D2D2A" points="272.357,79.802 257.898,72.586 258.346,71.692 272.307,78.659 311.716,54.358 312.241,55.21 	"/>
</g>
<g opacity="0.1">
	<polygon fill="#2D2D2A" points="273.047,74.563 262.161,70.837 262.485,69.891 272.951,73.473 310.3,52.878 310.782,53.754 	"/>
</g>
<g opacity="0.1">
	<polygon fill="#2D2D2A" points="273.23,70.249 267.34,68.672 267.598,67.706 273.102,69.179 304.567,51.966 305.048,52.843 	"/>
</g>
<polygon opacity="0.1" fill="#2D2D2A" points="381.354,185.9 381.957,186.697 425.663,153.58 425.663,152.325 "/>
<polygon opacity="0.1" fill="#2D2D2A" points="4.359,149.382 0.474,152.325 0.474,153.58 3.921,150.968 8.88,163.212 9.808,162.837 
	"/>
<polygon opacity="0.1" fill="#2D2D2A" points="385.45,188.79 386.083,189.565 425.663,157.296 425.663,156.005 "/>
<polygon opacity="0.1" fill="#2D2D2A" points="3.542,153.504 0.474,156.005 0.474,157.296 3.072,155.178 7.131,166.729 
	8.075,166.397 "/>
<polygon opacity="0.1" fill="#2D2D2A" points="390.35,191.912 391.023,192.651 425.663,161.145 425.663,159.793 "/>
<polygon opacity="0.1" fill="#2D2D2A" points="2.727,157.744 0.474,159.793 0.474,161.145 2.221,159.555 5.328,170.004 
	6.287,169.72 "/>
<polygon opacity="0.1" fill="#2D2D2A" points="395.12,194.955 395.835,195.654 425.663,165.144 425.663,163.714 "/>
<polygon opacity="0.1" fill="#2D2D2A" points="1.37,162.798 0.474,163.714 0.474,165.144 0.911,164.697 3.694,173.687 
	4.649,173.392 "/>
<polygon opacity="0.1" fill="#2D2D2A" points="3.07,176.552 0.474,169.684 0.474,172.511 2.134,176.905 "/>
<polygon opacity="0.1" fill="#2D2D2A" points="425.375,168.922 399.297,197.61 400.037,198.283 425.018,170.802 425.663,172.511 
	425.663,169.684 "/>
<polygon opacity="0.1" fill="#2D2D2A" points="424.688,174.466 403.058,200.003 403.821,200.65 424.305,176.466 425.612,180.354 
	425.663,180.337 425.663,177.369 "/>
<polygon opacity="0.1" fill="#2D2D2A" points="0.474,177.369 0.474,180.337 1.371,180.036 "/>
<g opacity="0.1">
	<polygon fill="#2D2D2A" points="406.162,201.979 406.943,202.604 423.046,182.451 423.806,184.112 424.716,183.696 423.28,180.557 
			"/>
</g>
<polygon opacity="0.1" fill="#2D2D2A" points="2.432,147.808 0.474,143.357 0.474,145.841 1.516,148.21 "/>
<g opacity="0.1">
	<polygon fill="#2D2D2A" points="389.699,67.382 358.533,92.687 359.164,93.463 389.297,68.996 423.804,150.37 424.724,149.979 
		389.958,67.994 	"/>
</g>
<g opacity="0.1">
	<polygon fill="#2D2D2A" points="420.677,152.694 388.796,73.521 364.531,94.514 363.877,93.758 389.2,71.849 421.604,152.321 	"/>
</g>
<g opacity="0.1">
	<polygon fill="#2D2D2A" points="417.432,155.113 387.469,79.051 370.117,95.216 369.436,94.485 387.861,77.318 388.13,78.001 
		418.361,154.747 	"/>
</g>
<g opacity="0.1">
	<polygon fill="#2D2D2A" points="414.466,157.324 386.774,85.18 373.892,95.853 373.253,95.083 387.208,83.521 387.458,84.171 
		415.399,156.965 	"/>
</g>
<g opacity="0.1">
	<polygon fill="#2D2D2A" points="411.952,158.831 385.547,91.161 378.633,96.631 378.012,95.847 385.986,89.538 412.884,158.468 	
		"/>
</g>
<g opacity="0.1">
	<polygon fill="#2D2D2A" points="409.849,160.778 384.524,96.483 379.93,101.991 379.162,101.351 384.837,94.548 410.778,160.412 	
		"/>
</g>
<g opacity="0.1">
	<polygon fill="#2D2D2A" points="405.923,159.745 383.348,103.41 379.271,109.461 378.441,108.902 383.574,101.286 406.851,159.373 
			"/>
</g>
<g opacity="0.1">
	<polygon fill="#2D2D2A" points="401.152,156.583 383.375,109.535 378.76,117.88 377.885,117.396 383.547,107.159 402.088,156.23 	
		"/>
</g>
<g opacity="0.1">
	<polygon fill="#2D2D2A" points="396.746,153.662 383.321,116.194 377.925,124.113 377.099,123.549 383.601,114.009 
		397.688,153.325 	"/>
</g>
<g opacity="0.1">
	<polygon fill="#2D2D2A" points="391.086,150.344 381.549,123.86 377.29,131.204 376.425,130.702 381.762,121.5 392.027,150.005 	
		"/>
</g>
<g opacity="0.1">
	<polygon fill="#2D2D2A" points="384.189,145.296 381.377,130.551 376.756,136.726 375.955,136.127 381.934,128.138 
		385.172,145.108 	"/>
</g>
<g opacity="0.1">
	<polygon fill="#2D2D2A" points="381.162,143.284 380.197,137.532 377.494,140.537 376.75,139.868 380.84,135.322 382.148,143.119 	
		"/>
</g>
<polygon opacity="0.1" fill="#2D2D2A" points="404.32,95.956 404.629,96.907 425.663,90.092 425.663,89.041 "/>
<polygon opacity="0.1" fill="#2D2D2A" points="0.474,70.66 0.474,72.167 12.093,85.276 0.474,89.041 0.474,90.092 13.854,85.757 "/>
<polygon opacity="0.1" fill="#2D2D2A" points="405.735,48.176 404.987,48.839 425.663,72.167 425.663,70.66 "/>
<polygon opacity="0.1" fill="#2D2D2A" points="0.474,76.586 0.474,78.059 6.05,84.087 0.474,85.635 0.474,86.674 7.898,84.613 "/>
<polygon opacity="0.1" fill="#2D2D2A" points="402.617,92.032 402.885,92.996 425.663,86.674 425.663,85.635 "/>
<polygon opacity="0.1" fill="#2D2D2A" points="401.988,50.989 401.254,51.668 425.663,78.059 425.663,76.586 "/>
<polygon opacity="0.1" fill="#2D2D2A" points="401.494,88.984 401.748,89.951 425.663,83.676 425.663,82.642 "/>
<polygon opacity="0.1" fill="#2D2D2A" points="399.256,53.038 398.535,53.731 425.663,81.927 425.663,80.485 "/>
<polygon opacity="0.1" fill="#2D2D2A" points="0.474,80.485 0.474,81.927 1.023,82.498 0.474,82.642 0.474,83.676 2.925,83.033 "/>
<g opacity="0.1">
	<polygon fill="#2D2D2A" points="399.678,85.803 399.49,84.821 420.109,80.872 395.1,56.338 395.801,55.625 422.172,81.495 	"/>
</g>
<g opacity="0.1">
	<polygon fill="#2D2D2A" points="397.86,81.783 397.767,80.787 413.806,79.287 392.324,58.435 393.021,57.717 416.06,80.081 	"/>
</g>
<g opacity="0.1">
	<polygon fill="#2D2D2A" points="396.49,78.683 396.408,77.686 407.128,76.803 389.631,60.478 390.313,59.747 409.462,77.613 	"/>
</g>
<g opacity="0.1">
	<polygon fill="#2D2D2A" points="403.101,75.232 394.931,75.232 394.931,74.232 400.141,74.232 391.254,67.46 391.859,66.665 	"/>
</g>
<polygon opacity="0.1" fill="#2D2D2A" points="380.455,305.128 380.036,304.384 341.712,367.372 295.849,351.071 295.668,351.008 
	271.115,361.126 271.496,362.05 295.695,352.077 341.761,368.45 342.144,368.587 380.003,306.361 425.663,387.346 425.663,385.31 
	"/>
<polygon opacity="0.1" fill="#2D2D2A" points="15.232,411.485 0.474,385.31 0.474,387.346 14.361,411.976 "/>
<polygon opacity="0.1" fill="#2D2D2A" points="380.46,313.861 380.059,313.112 341.724,372.872 295.663,355.926 273.694,365.787 
	274.104,366.698 295.7,357.006 341.755,373.948 342.132,374.086 379.98,315.084 425.663,400.336 425.663,398.22 "/>
<polygon opacity="0.1" fill="#2D2D2A" points="4.886,406.453 0.474,398.22 0.474,400.336 4.005,406.926 "/>
<g opacity="0.1">
	<polygon fill="#2D2D2A" points="419.8,402.342 379.975,323.222 344.615,380.393 295.704,362.272 276.636,371.224 276.21,370.319 
		295.659,361.188 295.855,361.262 344.195,379.17 380.064,321.175 380.466,321.974 420.692,401.893 	"/>
</g>
<g opacity="0.1">
	<polygon fill="#2D2D2A" points="411.495,398.288 379.98,331.161 348.561,387.347 348.158,387.195 295.732,367.546 279.955,377.073 
		279.438,376.218 295.631,366.44 348.107,386.108 380.059,328.974 412.399,397.862 	"/>
</g>
<g opacity="0.1">
	<polygon fill="#2D2D2A" points="403.143,394.209 379.95,340.434 349.226,392.592 296.81,372.952 282.307,382.396 281.762,381.559 
		296.687,371.839 348.79,391.361 380.089,338.229 404.061,393.813 	"/>
</g>
<g opacity="0.1">
	<polygon fill="#2D2D2A" points="396.229,390.838 378.949,349.771 359.997,386.233 359.11,385.772 379.045,347.419 397.15,390.449 	
		"/>
</g>
<g opacity="0.1">
	<polygon fill="#2D2D2A" points="390.977,388.279 378.111,357.728 369.437,377.351 368.522,376.946 378.133,355.204 
		391.898,387.892 	"/>
</g>
<g opacity="0.1">
	<polygon fill="#2D2D2A" points="384.211,384.965 378.053,367.95 372.675,378.949 371.776,378.51 378.191,365.393 385.15,384.625 	
		"/>
</g>
<polygon opacity="0.1" fill="#2D2D2A" points="320.152,0.164 318.818,0.164 313.928,5.704 311.035,0.164 309.908,0.164 
	313.715,7.456 "/>
<polygon opacity="0.1" fill="#2D2D2A" points="288.671,382.464 287.784,382.927 309.908,425.306 311.035,425.306 "/>
<polygon opacity="0.1" fill="#2D2D2A" points="346.197,395.803 345.447,395.141 318.818,425.306 320.152,425.306 "/>
<polygon opacity="0.1" fill="#2D2D2A" points="342.313,394.258 341.543,393.619 316.096,424.275 292.68,379.55 291.793,380.013 
	315.506,425.306 316.541,425.306 "/>
<polygon opacity="0.1" fill="#2D2D2A" points="316.541,0.164 315.506,0.164 315.906,0.929 "/>
<g opacity="0.1">
	<polygon fill="#2D2D2A" points="316.608,418.618 295.24,378.314 296.123,377.846 316.79,416.828 337.34,391.966 338.111,392.603 	
		"/>
</g>
<g opacity="0.1">
	<polygon fill="#2D2D2A" points="316.977,412.7 301.188,378.288 302.096,377.872 317.188,410.762 332.583,390.343 333.382,390.944 	
		"/>
</g>
<g opacity="0.1">
	<polygon fill="#2D2D2A" points="317.212,405.096 307.799,380.867 308.73,380.507 317.413,402.854 326.634,387.824 327.485,388.348 
			"/>
</g>
<g opacity="0.1">
	<polygon fill="#2D2D2A" points="318.218,396.071 312.903,382.882 313.831,382.509 318.356,393.74 322.486,386.218 323.363,386.698 
			"/>
</g>
<g opacity="0.1">
	<path fill="#2D2D2A" d="M380.272,383.018l-2.247-8.028c-0.948,2.254-2.068,4.975-2.144,5.332l-0.467-0.099l-0.243,0.498
		c-0.548-0.268-0.558-0.272,2.49-7.438l0.558-1.311l3.016,10.775L380.272,383.018z"/>
</g>
<polygon opacity="0.1" fill="#2D2D2A" points="51.725,79.364 51.377,78.427 0.474,97.302 0.474,98.37 "/>
<polygon opacity="0.1" fill="#2D2D2A" points="415.22,102.242 425.663,98.37 425.663,97.302 413.835,101.688 425.663,125.852 
	425.663,123.577 "/>
<polygon opacity="0.1" fill="#2D2D2A" points="0.474,125.852 22.566,170.986 23.465,170.546 0.474,123.577 "/>
<polygon opacity="0.1" fill="#2D2D2A" points="420.896,104.213 425.663,102.615 425.663,101.561 419.493,103.628 425.663,116.152 
	425.663,113.891 "/>
<polygon opacity="0.1" fill="#2D2D2A" points="47.609,86.824 47.291,85.876 0.474,101.561 0.474,102.615 "/>
<polygon opacity="0.1" fill="#2D2D2A" points="0.474,116.152 27.085,170.171 27.981,169.729 0.474,113.891 "/>
<polygon opacity="0.1" fill="#2D2D2A" points="32.212,169.849 0.962,106.568 42.891,93.893 43.18,94.85 2.382,107.184 
	33.108,169.407 "/>
<polygon opacity="0.1" fill="#2D2D2A" points="36.216,169.834 8.634,108.784 38.739,101.479 38.975,102.451 10.042,109.472 
	37.128,169.422 "/>
<polygon opacity="0.1" fill="#2D2D2A" points="38.396,169.092 13.633,110.55 35.955,106.59 36.129,107.574 15.043,111.316 
	39.318,168.702 "/>
<g opacity="0.1">
	<polygon fill="#2D2D2A" points="133.304,380.277 55.079,369.922 76.872,337.663 40.273,309.692 77.125,250.041 77.975,250.566 
		41.6,309.448 78.228,337.44 77.964,337.832 56.813,369.143 133.435,379.285 	"/>
</g>
<g opacity="0.1">
	<polygon fill="#2D2D2A" points="135.383,375.399 62.705,367.071 83.989,337.258 47.269,309.694 47.513,309.306 79.548,258.043 
		80.396,258.572 48.604,309.446 85.37,337.045 64.504,366.271 135.498,374.405 	"/>
</g>
<g opacity="0.1">
	<polygon fill="#2D2D2A" points="137.372,370.03 70.278,364.524 90.988,334.864 53.755,309.713 81.774,265.392 82.62,265.927 
		55.118,309.428 92.39,334.604 72.094,363.671 137.454,369.034 	"/>
</g>
<g opacity="0.1">
	<polygon fill="#2D2D2A" points="139.653,365.392 79.942,360.832 95.275,333.619 60.814,307.506 61.103,307.108 84.65,274.803 
		85.458,275.393 62.2,307.301 96.575,333.35 81.585,359.955 139.729,364.394 	"/>
</g>
<g opacity="0.1">
	<polygon fill="#2D2D2A" points="141.563,360.893 87.881,356.912 99.042,332.031 68.724,306.158 86.349,280.457 87.174,281.023 
		70.058,305.982 100.261,331.758 89.377,356.02 141.638,359.895 	"/>
</g>
<g opacity="0.1">
	<polygon fill="#2D2D2A" points="100.78,328.504 73.914,305.913 87.876,285.505 88.702,286.069 75.251,305.73 101.423,327.738 	"/>
</g>
<g opacity="0.1">
	<polygon fill="#2D2D2A" points="98.502,320.957 79.844,305.934 89.391,290.565 90.24,291.092 81.161,305.709 99.129,320.178 	"/>
</g>
<g opacity="0.1">
	<polygon fill="#2D2D2A" points="96.838,315.438 84.301,305.789 91.293,296.715 92.085,297.324 85.704,305.607 97.448,314.646 	"/>
</g>
<g opacity="0.1">
	<polygon fill="#2D2D2A" points="95.194,309.976 89.466,305.841 92.423,300.634 93.292,301.128 90.778,305.556 95.779,309.165 	"/>
</g>
<g opacity="0.1">
	<polygon fill="#2D2D2A" points="142.545,358.562 93.067,354.08 102.654,334.515 103.552,334.954 94.604,353.215 142.635,357.566 	
		"/>
</g>
<g opacity="0.1">
	<polygon fill="#2D2D2A" points="143.991,355.173 99.931,351.759 112.172,323.535 113.089,323.934 101.407,350.871 144.068,354.177 
			"/>
</g>
<g opacity="0.1">
	<polygon fill="#2D2D2A" points="144.917,352.965 104.763,349.025 114.928,325.73 115.845,326.131 106.229,348.164 145.015,351.969 
			"/>
</g>
<g opacity="0.1">
	<polygon fill="#2D2D2A" points="143.79,349.094 109.441,346.849 118.34,328.426 119.24,328.86 110.987,345.948 143.855,348.096 	
		"/>
</g>
<g opacity="0.1">
	<polygon fill="#2D2D2A" points="138.792,345.087 114.592,344.992 121.398,330.864 122.3,331.298 116.181,343.998 138.796,344.087 	
		"/>
</g>
<g opacity="0.1">
	<polygon fill="#2D2D2A" points="135.047,342.101 120.567,342.101 124.783,333.556 125.679,333.999 122.175,341.101 
		135.047,341.101 	"/>
</g>
<g opacity="0.1">
	<polygon fill="#2D2D2A" points="210.781,55.243 210.382,54.326 247.96,37.95 238.938,21.558 239.814,21.075 249.364,38.429 	"/>
</g>
<g opacity="0.1">
	<polygon fill="#2D2D2A" points="208.46,52.862 208.06,51.946 242.786,36.789 235.495,24.151 236.36,23.652 244.212,37.257 	"/>
</g>
<g opacity="0.1">
	<polygon fill="#2D2D2A" points="209.218,47.694 176.749,6.535 233.257,25.064 232.944,26.014 179.586,8.519 210.003,47.075 	"/>
</g>
<g opacity="0.1">
	<polygon fill="#2D2D2A" points="212.206,46.349 186.129,12.914 234.889,27.934 234.594,28.89 188.872,14.805 212.994,45.734 	"/>
</g>
<g opacity="0.1">
	<polygon fill="#2D2D2A" points="216.291,44.529 195.298,19.24 237.05,31.722 236.763,32.68 198.179,21.145 217.061,43.89 	"/>
</g>
<g opacity="0.1">
	<polygon fill="#2D2D2A" points="219.147,43.245 204.056,25.023 235.762,35.226 235.455,36.178 207.012,27.025 219.917,42.608 	"/>
</g>
<g opacity="0.1">
	<polygon fill="#2D2D2A" points="221.636,42.148 210.951,30.272 231.41,37.188 231.09,38.135 214.249,32.442 222.38,41.479 	"/>
</g>
<g opacity="0.1">
	<polygon fill="#2D2D2A" points="224.105,41.051 218.865,35.509 228.329,38.567 228.022,39.518 222.277,37.662 224.832,40.365 	"/>
</g>
<g opacity="0.1">
	<polygon fill="#2D2D2A" points="142.338,84.353 76.078,40.417 145.563,49.39 168.43,5.636 204.182,54.489 203.375,55.08 
		168.572,7.524 146.126,50.471 80.212,41.959 142.891,83.521 	"/>
</g>
<g opacity="0.1">
	<polygon fill="#2D2D2A" points="145.45,81.671 90.923,46.437 147.711,54.24 168.93,11.037 196.144,50.781 195.318,51.346 
		169.072,13.015 148.291,55.329 95.246,48.04 145.992,80.832 	"/>
</g>
<g opacity="0.1">
	<polygon fill="#2D2D2A" points="150.083,77.696 105.038,51.498 150.041,58.55 169.841,16.259 186.344,46.281 185.468,46.762 
		169.913,18.465 150.628,59.654 110.142,53.311 150.586,76.832 	"/>
</g>
<g opacity="0.1">
	<polygon fill="#2D2D2A" points="153.439,74.827 118.807,56.972 154.685,62.467 170.983,21.851 182.875,49.338 181.958,49.736 
		171.019,24.449 155.317,63.576 124.702,58.887 153.897,73.938 	"/>
</g>
<g opacity="0.1">
	<polygon fill="#2D2D2A" points="156.27,72.392 137.455,63.094 157.548,66.914 171.034,28.937 178.521,53.168 177.566,53.463 
		170.968,32.11 158.204,68.056 144.47,65.445 156.713,71.495 	"/>
</g>
<g opacity="0.1">
	<polygon fill="#2D2D2A" points="163.395,66.531 162.435,66.251 171.04,36.727 175.726,55.618 174.755,55.859 170.962,40.567 	"/>
</g>
<g opacity="0.1">
	<polygon fill="#2D2D2A" points="213.188,123.883 165.45,104.234 172.197,57.958 170.417,51.219 167.872,62.638 166.896,62.42 
		170.335,46.991 173.215,57.9 166.552,103.606 213.569,122.958 	"/>
</g>
<polygon opacity="0.1" fill="#2D2D2A" points="68.84,36.521 69.832,36.651 74.655,0.164 73.647,0.164 "/>
<polygon opacity="0.1" fill="#2D2D2A" points="76.798,401.471 73.647,425.306 74.655,425.306 77.54,403.483 101.78,425.306 
	103.274,425.306 "/>
<polygon opacity="0.1" fill="#2D2D2A" points="101.78,0.164 147.23,41.08 147.899,40.336 103.274,0.164 "/>
<polygon opacity="0.1" fill="#2D2D2A" points="149.738,38.229 111.294,4.461 111.954,3.709 148.822,36.095 149.545,17.91 
	156.02,23.524 155.364,24.28 150.462,20.029 "/>
<polygon opacity="0.1" fill="#2D2D2A" points="72.229,37.536 73.224,37.647 77.459,0.164 76.452,0.164 "/>
<polygon opacity="0.1" fill="#2D2D2A" points="97.083,0.164 145.854,43.929 146.522,43.185 98.58,0.164 "/>
<polygon opacity="0.1" fill="#2D2D2A" points="78.489,407.277 76.452,425.306 77.459,425.306 79.266,409.316 97.083,425.306 
	98.58,425.306 "/>
<polygon opacity="0.1" fill="#2D2D2A" points="74.858,37.887 75.851,38.004 80.283,0.164 79.276,0.164 "/>
<polygon opacity="0.1" fill="#2D2D2A" points="93.187,0.164 144.653,46.414 145.321,45.67 94.683,0.164 "/>
<polygon opacity="0.1" fill="#2D2D2A" points="80.743,412.778 79.276,425.306 80.283,425.306 81.512,414.813 93.187,425.306 
	94.683,425.306 "/>
<polygon opacity="0.1" fill="#2D2D2A" points="77.649,38.254 78.641,38.389 83.873,0.164 82.863,0.164 "/>
<polygon opacity="0.1" fill="#2D2D2A" points="83.636,419.661 82.863,425.306 83.873,425.306 84.369,421.679 88.362,425.306 
	89.85,425.306 "/>
<polygon opacity="0.1" fill="#2D2D2A" points="88.362,0.164 139.999,47.06 140.671,46.32 89.85,0.164 "/>
<polygon opacity="0.1" fill="#2D2D2A" points="80.639,38.657 81.63,38.79 86.45,2.921 133.425,46.175 134.103,45.438 85.715,0.885 
	"/>
<polygon opacity="0.1" fill="#2D2D2A" points="126.942,45.295 89.251,9.069 85.117,39.259 84.126,39.125 88.528,6.985 
	127.635,44.574 "/>
<polygon opacity="0.1" fill="#2D2D2A" points="121.415,44.577 90.758,16.237 89.389,39.796 88.391,39.738 89.882,14.065 
	122.093,43.843 "/>
<polygon opacity="0.1" fill="#2D2D2A" points="115.83,43.921 93.548,23.021 92.987,40.268 91.989,40.235 92.62,20.779 
	116.515,43.192 "/>
<polygon opacity="0.1" fill="#2D2D2A" points="110.539,43.102 96.384,30.779 96.384,40.708 95.384,40.708 95.384,28.582 
	111.195,42.348 "/>
<polygon opacity="0.1" fill="#2D2D2A" points="105.629,42.443 99.483,37.167 98.868,41.121 97.88,40.966 98.771,35.237 
	106.281,41.685 "/>
<polygon opacity="0.1" fill="#2D2D2A" points="136.62,26.469 137.62,26.493 138.258,0.164 137.258,0.164 "/>
<polygon opacity="0.1" fill="#2D2D2A" points="143.277,0.164 162.671,9.473 163.104,8.571 145.587,0.164 "/>
<polygon opacity="0.1" fill="#2D2D2A" points="137.354,421.354 137.258,425.306 138.258,425.306 138.316,422.924 143.277,425.306 
	145.587,425.306 "/>
<polygon opacity="0.1" fill="#2D2D2A" points="139.835,29.293 140.835,29.316 141.443,2.758 160.542,13.788 161.042,12.923 
	140.482,1.048 "/>
<polygon opacity="0.1" fill="#2D2D2A" points="143.171,31.393 142.173,31.322 143.968,5.705 159.69,15.771 159.151,16.612 
	144.848,7.455 "/>
<polygon opacity="0.1" fill="#2D2D2A" points="146.721,34.488 145.722,34.464 146.271,11.036 157.788,19.794 157.183,20.591 
	147.225,13.018 "/>
<g opacity="0.1">
	<polygon fill="#2D2D2A" points="273.935,116.857 234.957,96.521 224.327,104.659 191.393,49.513 192.251,49 224.61,103.182 
		234.855,95.339 273.864,115.692 332.195,75.677 335.331,9.919 313.271,32.078 301.555,12.844 286.501,28.714 285.776,28.025 
		301.729,11.208 313.463,30.469 336.454,7.375 333.17,76.221 	"/>
</g>
<g opacity="0.1">
	<polygon fill="#2D2D2A" points="273.943,112.41 273.674,112.274 234.909,92.696 225.322,97.655 196.316,51.796 197.161,51.262 
		225.678,96.346 234.903,91.573 273.855,111.246 328.802,72.215 331.188,20.008 313.294,38.832 301.571,20.833 290.463,32.756 
		289.73,32.075 301.712,19.217 313.44,37.226 332.309,17.377 329.778,72.748 329.58,72.889 	"/>
</g>
<g opacity="0.1">
	<polygon fill="#2D2D2A" points="273.934,100.453 238.222,82.29 229.578,86.271 210.17,58.213 210.993,57.645 229.922,85.012 
		238.243,81.178 273.865,99.297 323.207,66.473 326.44,31.773 313.313,43.869 301.627,29.305 294.808,37.173 294.053,36.518 
		301.656,27.743 313.422,42.409 327.678,29.274 324.158,67.041 323.96,67.173 	"/>
</g>
<g opacity="0.1">
	<polygon fill="#2D2D2A" points="319.98,62.545 318.994,62.376 322.92,39.516 313.338,49.25 301.652,35.314 297.793,40.192 
		297.008,39.572 301.631,33.732 313.396,47.765 324.445,36.541 	"/>
</g>
<g opacity="0.1">
	<polygon fill="#2D2D2A" points="316.815,59.295 315.825,59.15 317.392,48.495 313.532,53.166 303.357,42.049 302.083,44.452 
		301.2,43.983 303.139,40.328 313.493,51.643 318.901,45.098 	"/>
</g>
<g opacity="0.1">
	
		<rect x="344.474" y="37.01" transform="matrix(0.9995 0.0312 -0.0312 0.9995 2.1628 -10.744)" fill="#2D2D2A" width="1" height="53.688"/>
</g>
<polygon opacity="0.1" fill="#2D2D2A" points="17.602,86.023 0.474,66.202 0.474,67.73 16.846,86.677 "/>
<path opacity="0.1" fill="#2D2D2A" d="M408.068,45.841L384.516,63.6l-36.529-21.332v50.127l59.938-45.194l17.739,20.529v-1.528
	L408.068,45.841z M348.986,90.389V44.01l34.664,20.243L348.986,90.389z"/>
<g opacity="0.1">
	<polygon fill="#2D2D2A" points="351.554,88.709 350.985,47.601 381.748,66.079 381.232,66.937 352.011,49.383 352.554,88.696 	"/>
</g>
<g opacity="0.1">
	<polygon fill="#2D2D2A" points="355.331,85.325 354.473,52.435 378.6,68.48 378.045,69.313 355.523,54.333 356.331,85.299 	"/>
</g>
<g opacity="0.1">
	<polygon fill="#2D2D2A" points="359.832,82.496 358.284,59.503 375.918,70.485 375.389,71.333 359.413,61.384 360.83,82.428 	"/>
</g>
<g opacity="0.1">
	<polygon fill="#2D2D2A" points="363.707,79.596 362.221,66.024 372.843,72.81 372.304,73.652 363.441,67.991 364.701,79.487 	"/>
</g>
<g opacity="0.1">
	<polygon fill="#2D2D2A" points="366.757,77.322 365.84,71.536 370.825,74.294 370.341,75.169 367.148,73.403 367.745,77.166 	"/>
</g>
<polygon opacity="0.1" fill="#2D2D2A" points="134.999,413.948 134.675,414.894 165.075,425.306 168.16,425.306 "/>
<polygon opacity="0.1" fill="#2D2D2A" points="313.417,13.046 324.973,0.164 323.629,0.164 313.608,11.335 307.383,0.164 
	306.238,0.164 "/>
<polygon opacity="0.1" fill="#2D2D2A" points="0.474,376.313 0.474,378.365 20.245,413.827 0.474,404.198 0.474,405.312 
	22.667,416.12 "/>
<polygon opacity="0.1" fill="#2D2D2A" points="423.809,374.84 424.801,374.965 425.663,368.172 425.663,360.231 "/>
<polygon opacity="0.1" fill="#2D2D2A" points="0.474,298.253 0.474,299.257 8.305,298.543 0.474,360.231 0.474,368.172 
	9.454,297.434 "/>
<polygon opacity="0.1" fill="#2D2D2A" points="383.926,302.06 384.018,303.056 425.663,299.257 425.663,298.253 "/>
<polygon opacity="0.1" fill="#2D2D2A" points="419.753,367.541 420.739,367.705 425.663,338.139 425.663,332.051 "/>
<polygon opacity="0.1" fill="#2D2D2A" points="0.474,303.37 0.474,304.381 5.201,303.668 0.474,332.051 0.474,338.139 
	6.414,302.475 "/>
<polygon opacity="0.1" fill="#2D2D2A" points="387.807,309.076 387.955,310.064 425.663,304.381 425.663,303.37 "/>
<polygon opacity="0.1" fill="#2D2D2A" points="391.335,314.553 391.54,315.531 424.579,308.627 415.723,360.31 416.709,360.478 
	425.663,308.226 425.663,307.379 "/>
<polygon opacity="0.1" fill="#2D2D2A" points="0.474,307.379 0.474,308.226 0.625,307.348 "/>
<g opacity="0.1">
	<polygon fill="#2D2D2A" points="412.436,352.572 411.459,352.361 419.593,314.755 393.802,320.483 393.585,319.507 
		420.899,313.441 	"/>
</g>
<g opacity="0.1">
	<polygon fill="#2D2D2A" points="409.511,347.58 408.528,347.393 413.839,319.554 396.863,325.838 396.516,324.9 415.153,318.001 	
		"/>
</g>
<g opacity="0.1">
	<polygon fill="#2D2D2A" points="406.079,341.01 405.104,340.789 408.277,326.713 400.128,331.512 399.62,330.65 409.762,324.68 	
		"/>
</g>
<polygon opacity="0.1" fill="#2D2D2A" points="11.331,304.121 0.474,377.937 0.474,378.113 1.439,378.254 11.768,308.021 
	26.38,345.766 27.312,345.404 "/>
<polygon opacity="0.1" fill="#2D2D2A" points="425.638,378.109 425.663,378.113 425.663,377.937 "/>
<polygon opacity="0.1" fill="#2D2D2A" points="7.423,372.446 6.429,372.345 12.361,314.415 25.002,348.524 24.064,348.872 
	12.918,318.796 "/>
<polygon opacity="0.1" fill="#2D2D2A" points="10.969,367.681 9.975,367.565 14.54,327.926 23.081,351.109 22.144,351.455 
	15.054,332.21 "/>
<polygon opacity="0.1" fill="#2D2D2A" points="14.177,363.37 13.187,363.235 16.368,339.677 20.574,354.539 19.611,354.811 
	16.716,344.576 "/>
<polygon opacity="0.1" fill="#2D2D2A" points="28.462,407.032 8.184,376.624 32.986,344.508 18.978,309.536 67.454,345.171 
	66.862,345.978 21.208,312.417 34.127,344.666 9.415,376.667 29.294,406.478 "/>
<polygon opacity="0.1" fill="#2D2D2A" points="31.258,403.932 13.274,376.613 13.508,376.329 37.485,347.01 28.018,322.427 
	65.533,347.819 64.973,348.647 30.096,325.042 38.628,347.193 38.443,347.418 14.515,376.678 32.094,403.382 "/>
<polygon opacity="0.1" fill="#2D2D2A" points="34.095,400.777 18.813,376.604 42.298,348.746 35.85,331.331 63.175,351.137 
	62.587,351.947 37.932,334.075 43.439,348.945 43.25,349.168 20.05,376.688 34.94,400.242 "/>
<polygon opacity="0.1" fill="#2D2D2A" points="37.009,397.601 21.943,377.109 48.785,352.595 42.405,339.106 60.953,354.288 
	60.32,355.062 45.208,342.692 50.005,352.835 49.732,353.084 23.281,377.242 37.815,397.009 "/>
<polygon opacity="0.1" fill="#2D2D2A" points="39.593,395.383 25.609,378.115 51.889,355.95 50.636,348.743 58.583,357.733 
	57.833,358.395 52.226,352.053 52.973,356.345 52.753,356.529 27.004,378.248 40.371,394.754 "/>
<polygon opacity="0.1" fill="#2D2D2A" points="42.136,392.492 30.199,378.081 30.646,377.771 56.252,359.983 56.823,360.804 
	31.664,378.282 42.906,391.854 "/>
<polygon opacity="0.1" fill="#2D2D2A" points="44.451,389.882 34.42,378.701 50.253,368.362 50.8,369.2 35.943,378.9 
	45.195,389.214 "/>
<polygon opacity="0.1" fill="#2D2D2A" points="47.028,387.001 38.724,379.044 51.326,372.483 51.787,373.369 40.423,379.286 
	47.719,386.278 "/>
<polygon opacity="0.1" fill="#2D2D2A" points="49.548,384.129 44.186,379.027 56.322,373.206 56.753,374.107 45.926,379.303 
	50.238,383.404 "/>
<polygon opacity="0.1" fill="#2D2D2A" points="424.159,60.023 409.303,38.393 386.943,57.459 346.084,32.302 345.561,33.154 
	387.039,58.692 409.107,39.874 424.368,62.095 425.663,59.031 425.663,56.465 "/>
<polygon opacity="0.1" fill="#2D2D2A" points="22.151,5.177 0.474,56.465 0.474,59.031 23.073,5.566 "/>
<polygon opacity="0.1" fill="#2D2D2A" points="424.204,68.022 425.663,67.342 425.663,64.706 "/>
<polygon opacity="0.1" fill="#2D2D2A" points="424.134,53.496 409.306,31.993 385.54,51.788 346.39,27.102 345.856,27.947 
	385.622,53.021 409.104,33.463 424.394,55.634 425.663,52.277 425.663,49.452 "/>
<polygon opacity="0.1" fill="#2D2D2A" points="16.756,6.403 0.474,49.452 0.474,52.277 17.691,6.757 "/>
<polygon opacity="0.1" fill="#2D2D2A" points="424.084,47.411 409.157,27.306 385.546,46.621 349.764,23.63 349.223,24.471 
	385.616,47.855 408.979,28.743 424.443,49.573 425.663,45.75 425.663,42.462 "/>
<polygon opacity="0.1" fill="#2D2D2A" points="11.725,7.198 0.474,42.462 0.474,45.75 12.678,7.502 "/>
<polygon opacity="0.1" fill="#2D2D2A" points="422.956,40.05 410.097,22.292 385.549,41.454 355.263,22.581 354.733,23.429 
	385.613,42.672 409.896,23.718 423.37,42.327 425.663,33.958 425.663,30.171 "/>
<polygon opacity="0.1" fill="#2D2D2A" points="6.492,8.211 0.474,30.171 0.474,33.958 7.457,8.476 "/>
<polygon opacity="0.1" fill="#2D2D2A" points="0.474,9.423 0.474,16.176 1.431,9.562 "/>
<polygon opacity="0.1" fill="#2D2D2A" points="425.63,9.418 422.026,34.323 411.125,17.3 386.947,35.608 361.053,21.461 
	360.573,22.339 387.035,36.796 410.867,18.75 422.632,37.122 425.663,16.176 425.663,9.423 "/>
<g opacity="0.1">
	<polygon fill="#2D2D2A" points="387.71,32.275 366.179,21.282 366.634,20.392 387.618,31.106 411.758,13.505 420.976,25.235 
		422.963,9.933 423.955,10.062 421.661,27.725 411.568,14.881 	"/>
</g>
<g opacity="0.1">
	<polygon fill="#2D2D2A" points="387.88,27.05 372.369,20.122 372.777,19.209 387.78,25.911 407.538,12.555 408.099,13.382 	"/>
</g>
<g opacity="0.1">
	<polygon fill="#2D2D2A" points="388.247,23.412 377.166,19.227 377.52,18.292 388.081,22.28 398.593,14.267 399.198,15.062 	"/>
</g>
<g opacity="0.1">
	<polygon fill="#2D2D2A" points="419.666,18.541 414.547,12.345 415.318,11.708 418.992,16.155 419.785,10.531 420.775,10.671 	"/>
</g>
<polygon opacity="0.1" fill="#2D2D2A" points="20.059,85.629 4.844,67.083 67.793,37.928 68.213,38.835 6.436,67.448 20.832,84.995 
	"/>
<polygon opacity="0.1" fill="#2D2D2A" points="26.184,82.703 17.223,69.462 69.137,46.854 69.535,47.771 18.725,69.899 
	27.012,82.142 "/>
<polygon opacity="0.1" fill="#2D2D2A" points="29.986,81.229 22.703,71.216 65.593,52.557 65.991,53.474 24.244,71.636 
	30.795,80.641 "/>
<polygon opacity="0.1" fill="#2D2D2A" points="33.746,79.65 30.307,72.218 62.643,57.915 63.047,58.829 31.641,72.721 34.654,79.23 
	"/>
<polygon opacity="0.1" fill="#2D2D2A" points="38.393,77.797 36.172,72.185 59.833,63.053 60.192,63.986 37.473,72.754 
	39.322,77.429 "/>
<polygon opacity="0.1" fill="#2D2D2A" points="43.164,75.824 42.459,72.117 57.556,67.709 57.837,68.669 43.612,72.822 
	44.146,75.638 "/>
<polygon opacity="0.1" fill="#2D2D2A" points="6.101,65.06 5.179,64.675 29.618,6.134 44.416,3.562 68.248,16.994 67.758,17.865 
	44.236,4.608 30.329,7.026 "/>
<polygon opacity="0.1" fill="#2D2D2A" points="11.54,62.031 10.61,61.662 31.273,9.566 43.746,6.818 67.459,21.475 66.934,22.325 
	43.564,7.882 32.008,10.428 "/>
<polygon opacity="0.1" fill="#2D2D2A" points="17.691,59.157 16.756,58.803 34.263,12.556 43.125,10.057 66.658,26.067 
	66.096,26.894 42.947,11.146 35.019,13.381 "/>
<polygon opacity="0.1" fill="#2D2D2A" points="23.248,56.564 22.311,56.215 37.6,15.097 41.897,14.13 66.39,30.154 65.843,30.991 
	41.704,15.198 38.348,15.953 "/>
<polygon opacity="0.1" fill="#2D2D2A" points="27.158,54.75 26.229,54.379 40.733,17.944 65.826,34.056 65.285,34.897 
	41.213,19.441 "/>
<polygon opacity="0.1" fill="#2D2D2A" points="32.478,52.252 31.532,51.924 41.534,23.096 63.665,37.027 63.131,37.874 
	42.067,24.612 "/>
<polygon opacity="0.1" fill="#2D2D2A" points="36.466,50.391 35.521,50.066 43.394,27.14 60.293,38.616 59.731,39.442 
	43.916,28.702 "/>
<polygon opacity="0.1" fill="#2D2D2A" points="40.194,48.641 39.239,48.343 44.364,31.911 56.165,40.558 55.573,41.364 
	44.901,33.545 "/>
<polygon opacity="0.1" fill="#2D2D2A" points="43.78,46.971 42.827,46.667 45.885,37.077 51.933,42.584 51.259,43.323 
	46.364,38.866 "/>
<polygon opacity="0.1" fill="#2D2D2A" points="303.862,419.891 303.274,419.082 294.692,425.306 296.395,425.306 "/>
<polygon opacity="0.1" fill="#2D2D2A" points="140.493,411.256 140.177,412.205 179.622,425.306 182.794,425.306 "/>
<polygon opacity="0.1" fill="#2D2D2A" points="263.491,360.847 262.536,360.548 242.273,425.306 243.321,425.306 "/>
<polygon opacity="0.1" fill="#2D2D2A" points="243.321,0.164 242.273,0.164 236.675,18.058 182.794,0.164 179.622,0.164 
	237.325,19.328 "/>
<polygon opacity="0.1" fill="#2D2D2A" points="255.386,364.216 254.429,363.929 236.033,425.306 237.077,425.306 "/>
<polygon opacity="0.1" fill="#2D2D2A" points="145.996,408.986 145.693,409.939 194.032,425.306 197.333,425.306 "/>
<polygon opacity="0.1" fill="#2D2D2A" points="236.033,0.164 232.667,11.396 197.333,0.164 194.032,0.164 232.849,12.503 
	233.333,12.658 237.077,0.164 "/>
<polygon opacity="0.1" fill="#2D2D2A" points="249.146,366.8 248.179,366.542 232.45,425.306 233.485,425.306 "/>
<polygon opacity="0.1" fill="#2D2D2A" points="152.658,406.213 152.355,407.166 209.416,425.306 212.716,425.306 "/>
<polygon opacity="0.1" fill="#2D2D2A" points="232.45,0.164 230.902,5.945 212.716,0.164 209.416,0.164 231.099,7.057 
	231.598,7.215 233.485,0.164 "/>
<g opacity="0.1">
	<polygon fill="#2D2D2A" points="226.339,422.75 225.867,422.621 159.288,404.294 159.553,403.33 225.661,421.527 241.309,369.389 
		242.266,369.676 	"/>
</g>
<g opacity="0.1">
	<polygon fill="#2D2D2A" points="223.932,418.353 166.947,401.099 167.237,400.142 223.221,417.094 234.711,372.152 235.68,372.4 	
		"/>
</g>
<g opacity="0.1">
	<polygon fill="#2D2D2A" points="221.977,412.384 176.289,397.2 176.604,396.251 221.215,411.077 228.394,374.806 229.374,374.999 	
		"/>
</g>
<g opacity="0.1">
	<polygon fill="#2D2D2A" points="217.782,403.083 182.852,394.496 183.09,393.525 217.044,401.872 223.09,376.529 224.063,376.762 	
		"/>
</g>
<g opacity="0.1">
	<polygon fill="#2D2D2A" points="213.05,397.343 190.926,391.125 191.196,390.162 212.354,396.108 216.932,379.647 217.895,379.915 
			"/>
</g>
<g opacity="0.1">
	<polygon fill="#2D2D2A" points="209.521,391.26 198.678,387.89 198.975,386.935 208.926,390.027 212.236,381.457 213.168,381.816 	
		"/>
</g>
<polygon opacity="0.1" fill="#2D2D2A" points="296.787,417.837 266.855,366.419 265.991,366.923 295.498,417.61 286.283,425.306 
	287.844,425.306 "/>
<polygon opacity="0.1" fill="#2D2D2A" points="287.844,0.164 286.283,0.164 266.742,16.481 296.542,48.323 240.701,71.482 
	241.084,72.406 298.259,48.694 268.195,16.571 "/>
<polygon opacity="0.1" fill="#2D2D2A" points="290.735,417.824 264.548,373.227 263.685,373.731 289.458,417.623 280.847,425.306 
	282.349,425.306 "/>
<polygon opacity="0.1" fill="#2D2D2A" points="282.349,0.164 280.847,0.164 261.618,17.318 287.39,46.331 234.712,68.496 
	235.101,69.417 289.065,46.711 263.028,17.4 "/>
<polygon opacity="0.1" fill="#2D2D2A" points="276.719,0.164 275.259,0.164 257.675,16.662 257.343,16.972 278.902,44.813 
	228.689,65.931 229.078,66.853 280.49,45.231 258.69,17.08 "/>
<polygon opacity="0.1" fill="#2D2D2A" points="284.712,417.806 261.773,381.37 260.928,381.903 283.427,417.642 275.259,425.306 
	276.719,425.306 "/>
<polygon opacity="0.1" fill="#2D2D2A" points="268.219,0.164 266.901,0.164 251.012,18.688 271.313,43.141 221.414,62.556 
	221.777,63.488 272.97,43.57 252.32,18.698 "/>
<polygon opacity="0.1" fill="#2D2D2A" points="277.069,414.988 258.41,391.162 257.623,391.779 275.776,414.959 266.901,425.306 
	268.219,425.306 "/>
<polygon opacity="0.1" fill="#2D2D2A" points="271.644,414.976 256.199,396.406 255.43,397.045 270.339,414.972 261.629,425.306 
	262.937,425.306 "/>
<polygon opacity="0.1" fill="#2D2D2A" points="273.864,93.794 239.975,76.762 239.768,76.658 231.427,80.193 218.174,61.302 
	263.784,41.398 247.301,18.715 262.937,0.164 261.629,0.164 246.283,18.371 246.031,18.67 262.243,40.98 216.652,60.874 
	231.073,81.43 239.732,77.759 273.935,94.948 320.703,63.835 320.148,63.003 "/>
<polygon opacity="0.1" fill="#2D2D2A" points="265.898,414.991 255.313,400.35 254.502,400.936 264.639,414.956 256.219,425.306 
	257.507,425.306 "/>
<polygon opacity="0.1" fill="#2D2D2A" points="257.507,0.164 256.219,0.164 241.399,18.377 241.17,18.659 254.182,38.82 
	213.531,58.593 170.277,0.98 169.477,1.58 213.227,59.853 255.633,39.226 242.404,18.727 "/>
<polygon opacity="0.1" fill="#2D2D2A" points="261.966,415.874 253.965,404.349 253.143,404.919 260.698,415.8 252.317,425.306 
	253.65,425.306 "/>
<polygon opacity="0.1" fill="#2D2D2A" points="252.317,0.164 242.15,11.696 242.9,12.358 253.65,0.164 "/>
<polygon opacity="0.1" fill="#2D2D2A" points="247.665,0.164 244.837,3.739 245.622,4.36 248.94,0.164 "/>
<polygon opacity="0.1" fill="#2D2D2A" points="257.117,414.968 252.315,409.111 251.542,409.746 255.834,414.979 247.665,425.306 
	248.94,425.306 "/>
<polygon opacity="0.1" fill="#2D2D2A" points="133.548,23.771 134.548,23.796 135.146,0.164 134.145,0.164 "/>
<polygon opacity="0.1" fill="#2D2D2A" points="151.701,0.164 164.597,5.547 164.983,4.625 154.296,0.164 "/>
<polygon opacity="0.1" fill="#2D2D2A" points="134.355,416.98 134.145,425.306 135.146,425.306 135.318,418.466 151.701,425.306 
	154.296,425.306 "/>
<polygon opacity="0.1" fill="#2D2D2A" points="133.102,414.996 132.103,414.951 131.641,425.306 132.642,425.306 "/>
<polygon opacity="0.1" fill="#2D2D2A" points="131.641,0.164 130.863,17.609 113.118,1.533 112.446,2.273 131.767,19.777 
	132.642,0.164 "/>
<polygon opacity="0.1" fill="#2D2D2A" points="114.529,423.985 113.88,424.745 114.536,425.306 116.074,425.306 "/>
<polygon opacity="0.1" fill="#2D2D2A" points="130.176,416.22 129.178,416.163 128.651,425.306 129.652,425.306 "/>
<polygon opacity="0.1" fill="#2D2D2A" points="129.652,0.164 128.651,0.164 128.06,10.409 116.074,0.164 114.536,0.164 
	128.943,12.479 "/>
<polygon opacity="0.1" fill="#2D2D2A" points="117.614,420.988 116.932,421.719 120.773,425.306 122.238,425.306 "/>
<polygon opacity="0.1" fill="#2D2D2A" points="126.697,0.164 125.688,0.164 125.302,3.024 122.238,0.164 120.773,0.164 
	126.034,5.075 "/>
<polygon opacity="0.1" fill="#2D2D2A" points="127.784,417.252 126.793,417.119 125.688,425.306 126.697,425.306 "/>
<g opacity="0.1">
	<polygon fill="#2D2D2A" points="124.609,425.199 119.716,420.556 120.404,419.831 123.894,423.141 124.625,418.018 
		125.615,418.158 	"/>
</g>
<polygon opacity="0.1" fill="#2D2D2A" points="313.59,17.867 303.138,0.971 277.652,19.791 278.246,20.595 302.858,2.419 
	313.436,19.519 331.104,0.164 329.75,0.164 "/>
<polygon opacity="0.1" fill="#2D2D2A" points="343.359,410.397 329.75,425.306 331.104,425.306 342.277,413.064 341.907,425.306 
	342.908,425.306 "/>
<polygon opacity="0.1" fill="#2D2D2A" points="341.907,0.164 339.207,89.453 340.207,89.482 342.908,0.164 "/>
<polygon opacity="0.1" fill="#2D2D2A" points="313.438,23.887 301.743,5.977 281.702,23.801 282.366,24.548 301.54,7.496 
	313.296,25.496 337.198,0.164 335.822,0.164 "/>
<polygon opacity="0.1" fill="#2D2D2A" points="338.86,0.164 334.986,89.259 335.986,89.302 339.86,0.164 "/>
<polygon opacity="0.1" fill="#2D2D2A" points="340.056,420.818 335.822,425.306 337.198,425.306 338.94,423.459 338.86,425.306 
	339.86,425.306 "/>
<polygon opacity="0.1" fill="#2D2D2A" points="22.269,414.82 58.878,374.279 58.136,373.609 20.644,415.127 41.037,425.306 
	43.276,425.306 "/>
<polygon opacity="0.1" fill="#2D2D2A" points="41.037,0.164 68.363,13.803 68.811,12.908 43.276,0.164 "/>
<polygon opacity="0.1" fill="#2D2D2A" points="364.045,380.785 363.615,381.687 425.663,411.241 425.663,410.135 "/>
<polygon opacity="0.1" fill="#2D2D2A" points="345.828,18.601 345.998,19.585 425.663,5.797 425.663,4.784 "/>
<polygon opacity="0.1" fill="#2D2D2A" points="27.162,0.164 0.474,4.784 0.474,5.797 32.511,0.253 32.324,0.164 "/>
<polygon opacity="0.1" fill="#2D2D2A" points="0.474,410.135 0.474,411.241 29.243,424.945 27.162,425.306 32.324,425.306 "/>
<polygon opacity="0.1" fill="#2D2D2A" points="22.286,424.065 0.474,413.693 0.474,414.801 18.993,423.606 8.908,425.306 
	14.926,425.306 "/>
<polygon opacity="0.1" fill="#2D2D2A" points="0.474,2.599 14.926,0.164 8.908,0.164 0.474,1.584 "/>
<polygon opacity="0.1" fill="#2D2D2A" points="345.848,15.032 346.014,16.019 425.663,2.599 425.663,1.584 "/>
<polygon opacity="0.1" fill="#2D2D2A" points="361.774,383.315 361.345,384.218 425.663,414.801 425.663,413.693 "/>
<polygon opacity="0.1" fill="#2D2D2A" points="425.663,424.471 425.663,423.453 415.504,425.306 421.084,425.306 "/>
<polygon opacity="0.1" fill="#2D2D2A" points="415.504,0.164 345.852,12.863 346.031,13.848 421.084,0.164 "/>
<polygon opacity="0.1" fill="#2D2D2A" points="359.151,386.232 358.731,387.141 425.663,418.069 425.663,416.969 "/>
<polygon opacity="0.1" fill="#2D2D2A" points="0.474,416.969 0.474,418.069 8.829,421.93 0.474,423.453 0.474,424.471 
	12.115,422.348 "/>
<polygon opacity="0.1" fill="#2D2D2A" points="425.663,421.1 425.663,420.332 356.58,389.092 356.168,390.004 423.488,420.446 
	394.143,425.306 400.264,425.306 "/>
<polygon opacity="0.1" fill="#2D2D2A" points="394.143,0.164 345.884,8.154 346.048,9.14 400.264,0.164 "/>
<polygon opacity="0.1" fill="#2D2D2A" points="0.474,420.332 0.474,421.1 1.715,420.894 "/>
<polygon opacity="0.1" fill="#2D2D2A" points="414.561,419.739 354.23,391.72 353.809,392.626 411.098,419.233 369.43,425.306 
	376.367,425.306 "/>
<polygon opacity="0.1" fill="#2D2D2A" points="369.43,0.164 345.916,3.59 346.061,4.581 376.367,0.164 "/>
<polygon opacity="0.1" fill="#2D2D2A" points="402.769,417.988 351.631,394.613 351.215,395.523 399.209,417.459 345.756,424.675 
	345.841,425.306 348.55,425.306 "/>
<polygon opacity="0.1" fill="#2D2D2A" points="348.55,0.164 345.841,0.164 345.889,0.523 "/>
<g opacity="0.1">
	<polygon fill="#2D2D2A" points="345.871,421.168 345.773,420.172 387.689,416.029 348.137,398.97 348.532,398.052 391.639,416.645 
			"/>
</g>
<g opacity="0.1">
	<polygon fill="#2D2D2A" points="346.171,418.221 346.075,417.226 375.896,414.376 345.944,402.944 346.302,402.011 
		380.244,414.966 	"/>
</g>
<g opacity="0.1">
	<polygon fill="#2D2D2A" points="346.191,415.832 346.055,414.842 363.03,412.502 345.94,405.804 346.306,404.872 366.964,412.969 	
		"/>
</g>
<g opacity="0.1">
	<polygon fill="#2D2D2A" points="345.899,412.71 345.745,411.722 351.267,410.858 345.939,408.762 346.307,407.832 355.062,411.278 
			"/>
</g>
<polygon opacity="0.1" fill="#2D2D2A" points="346.029,24.2 346.217,25.182 425.663,10.087 425.663,9.07 "/>
<polygon opacity="0.1" fill="#2D2D2A" points="0.474,9.07 0.474,10.087 44.419,1.738 44.232,0.756 "/>
<polygon opacity="0.1" fill="#2D2D2A" points="26.058,417.417 25.312,416.753 61.712,375.86 73.053,410.545 72.102,410.854 
	61.302,377.825 "/>
<polygon opacity="0.1" fill="#2D2D2A" points="29.938,419.331 29.166,418.696 60.194,381 72.262,416.028 71.316,416.354 
	59.831,383.016 "/>
<polygon opacity="0.1" fill="#2D2D2A" points="70.347,423.059 59.817,388.903 34.348,421.519 33.559,420.903 60.208,386.779 
	71.302,422.764 "/>
<polygon opacity="0.1" fill="#2D2D2A" points="68.496,0.164 69.566,3.385 70.516,3.071 69.549,0.164 "/>
<polygon opacity="0.1" fill="#2D2D2A" points="59.145,394.001 37.578,422.922 38.379,423.52 58.801,396.135 68.496,425.306 
	69.549,425.306 "/>
<polygon opacity="0.1" fill="#2D2D2A" points="42.667,0.315 42.773,0.164 42.451,0.164 "/>
<polygon opacity="0.1" fill="#2D2D2A" points="66.067,0.164 68.922,7.928 69.861,7.582 67.134,0.164 "/>
<polygon opacity="0.1" fill="#2D2D2A" points="58.347,401.409 41.848,424.883 42.451,425.306 42.773,425.306 58.068,403.545 
	66.067,425.306 67.134,425.306 "/>
<polygon opacity="0.1" fill="#2D2D2A" points="45.709,1.866 46.54,2.424 48.062,0.164 46.855,0.164 "/>
<polygon opacity="0.1" fill="#2D2D2A" points="62.672,0.164 66.719,13.118 67.674,12.819 63.72,0.164 "/>
<polygon opacity="0.1" fill="#2D2D2A" points="58.375,408.195 46.855,425.306 48.062,425.306 58.041,410.482 62.672,425.306 
	63.72,425.306 "/>
<polygon opacity="0.1" fill="#2D2D2A" points="49.582,3.832 50.443,4.339 52.904,0.164 51.744,0.164 "/>
<polygon opacity="0.1" fill="#2D2D2A" points="57.855,414.938 51.744,425.306 52.904,425.306 57.539,417.444 59.812,425.306 
	60.853,425.306 "/>
<polygon opacity="0.1" fill="#2D2D2A" points="59.812,0.164 62.917,10.905 63.878,10.627 60.853,0.164 "/>
<polygon opacity="0.1" fill="#2D2D2A" points="52.851,5.168 53.763,5.576 56.183,0.164 55.087,0.164 "/>
<polygon opacity="0.1" fill="#2D2D2A" points="56.862,421.333 55.087,425.306 56.183,425.306 56.547,424.489 56.731,425.306 
	57.756,425.306 "/>
<polygon opacity="0.1" fill="#2D2D2A" points="56.731,0.164 58.667,8.757 59.641,8.538 57.756,0.164 "/>
<g opacity="0.05">
	<polygon fill="#2D2D2A" points="104.17,339.986 74.104,240.644 75.062,240.354 104.254,336.813 145.375,223.127 146.314,223.467 	
		"/>
</g>
<g opacity="0.05">
	<polygon fill="#2D2D2A" points="104.178,325.276 77.073,239.97 78.026,239.667 104.247,322.192 136.944,233.334 137.882,233.68 	
		"/>
</g>
<g opacity="0.1">
	<polygon fill="#2D2D2A" points="26.058,417.417 25.311,416.753 61.712,375.86 73.052,410.545 72.102,410.854 61.302,377.825 	"/>
</g>
<g opacity="0.1">
	<polygon fill="#2D2D2A" points="29.938,419.331 29.166,418.696 60.194,381 72.262,416.028 71.316,416.354 59.831,383.016 	"/>
</g>
<g opacity="0.1">
	<polygon fill="#2D2D2A" points="70.346,423.059 59.816,388.903 34.347,421.519 33.559,420.903 60.208,386.779 71.302,422.764 	"/>
</g>
<polygon opacity="0.1" fill="#2D2D2A" points="59.146,394.001 37.578,422.922 38.379,423.52 58.801,396.135 68.496,425.306 
	69.549,425.306 "/>
<polygon opacity="0.1" fill="#2D2D2A" points="68.496,0.164 69.566,3.385 70.516,3.071 69.549,0.164 "/>
<polygon opacity="0.1" fill="#2D2D2A" points="42.667,0.315 42.773,0.164 42.451,0.164 "/>
<polygon opacity="0.1" fill="#2D2D2A" points="58.347,401.409 41.848,424.883 42.451,425.306 42.773,425.306 58.068,403.545 
	66.068,425.306 67.133,425.306 "/>
<polygon opacity="0.1" fill="#2D2D2A" points="66.068,0.164 68.922,7.928 69.861,7.582 67.133,0.164 "/>
<polygon opacity="0.1" fill="#2D2D2A" points="45.71,1.866 46.539,2.424 48.061,0.164 46.855,0.164 "/>
<polygon opacity="0.1" fill="#2D2D2A" points="58.374,408.195 46.855,425.306 48.061,425.306 58.041,410.482 62.672,425.306 
	63.72,425.306 "/>
<polygon opacity="0.1" fill="#2D2D2A" points="62.672,0.164 66.719,13.118 67.673,12.819 63.72,0.164 "/>
<polygon opacity="0.1" fill="#2D2D2A" points="59.812,0.164 62.917,10.905 63.878,10.627 60.853,0.164 "/>
<polygon opacity="0.1" fill="#2D2D2A" points="49.582,3.832 50.443,4.339 52.904,0.164 51.744,0.164 "/>
<polygon opacity="0.1" fill="#2D2D2A" points="57.855,414.938 51.744,425.306 52.904,425.306 57.539,417.444 59.812,425.306 
	60.853,425.306 "/>
<polygon opacity="0.1" fill="#2D2D2A" points="52.851,5.168 53.764,5.576 56.183,0.164 55.087,0.164 "/>
<polygon opacity="0.1" fill="#2D2D2A" points="56.731,0.164 58.666,8.757 59.642,8.538 57.756,0.164 "/>
<polygon opacity="0.1" fill="#2D2D2A" points="56.862,421.333 55.087,425.306 56.183,425.306 56.547,424.489 56.731,425.306 
	57.756,425.306 "/>
<polygon opacity="0.1" fill="#2D2D2A" points="128.017,386.236 66.446,377.687 66.308,378.677 126.562,387.043 109.508,425.306 
	110.602,425.306 "/>
<polygon opacity="0.1" fill="#2D2D2A" points="109.508,0.164 108.783,1.79 109.696,2.196 110.602,0.164 "/>
<g opacity="0.1">
	<polygon fill="#2D2D2A" points="107.006,424.976 106.091,424.571 121.96,388.655 67.343,382.505 67.456,381.511 123.425,387.814 	
		"/>
</g>
<g opacity="0.1">
	<polygon fill="#2D2D2A" points="104,422.35 103.093,421.928 117.457,391.084 68.896,387.138 68.977,386.142 118.97,390.203 	"/>
</g>
<g opacity="0.1">
	<polygon fill="#2D2D2A" points="101.051,419.765 100.147,419.339 112.02,394.121 70.229,391.143 70.3,390.145 113.546,393.227 	"/>
</g>
<g opacity="0.1">
	<polygon fill="#2D2D2A" points="98.229,417.317 97.343,416.853 107.643,397.189 71.767,395.567 71.812,394.569 109.258,396.262 	
		"/>
</g>
<g opacity="0.1">
	<polygon fill="#2D2D2A" points="95.821,415.21 94.939,414.737 102.639,400.352 78.146,400.352 78.146,399.352 104.308,399.352 	"/>
</g>
<g opacity="0.1">
	<polygon fill="#2D2D2A" points="92.652,412.495 91.824,411.937 97.817,403.051 82.518,404.155 82.445,403.158 99.795,401.904 	"/>
</g>
<g opacity="0.1">
	<polygon fill="#2D2D2A" points="90.531,410.643 89.709,410.074 92.061,406.677 86.061,407.253 85.965,406.257 94.108,405.476 	"/>
</g>
<g opacity="0.1">
	<polygon fill="#2D2D2A" points="174.567,367.707 111.782,316.994 112.41,316.217 173.434,365.507 169.348,297.514 215.429,295.289 
		217.974,250.883 218.972,250.939 216.376,296.244 170.406,298.463 	"/>
</g>
<g opacity="0.1">
	<polygon fill="#2D2D2A" points="170.458,356.898 113.34,312.714 113.952,311.923 169.296,354.734 164.54,290.316 212.229,291.429 
		214.384,250.885 215.382,250.938 213.176,292.45 212.69,292.439 165.618,291.341 	"/>
</g>
<g opacity="0.1">
	<polygon fill="#2D2D2A" points="165.663,345.638 115.09,308.39 115.683,307.585 164.496,343.537 159.697,282.104 208.362,286.785 
		209.162,251.739 210.162,251.763 209.337,287.883 208.802,287.832 160.787,283.213 	"/>
</g>
<g opacity="0.1">
	<polygon fill="#2D2D2A" points="160.792,336.371 116.551,303.871 117.143,303.064 159.692,334.323 156.806,274.513 
		205.008,281.741 203.737,252.566 204.736,252.523 206.06,282.909 157.863,275.683 	"/>
</g>
<g opacity="0.1">
	<polygon fill="#2D2D2A" points="156.772,326.688 117.931,300.104 118.496,299.277 155.646,324.705 151.966,265.996 
		201.104,276.581 198.612,253.214 199.606,253.108 202.244,277.851 153.047,267.252 	"/>
</g>
<g opacity="0.1">
	<polygon fill="#2D2D2A" points="153.893,320.292 119.034,297.071 119.588,296.239 152.776,318.347 149.337,260.572 
		196.458,271.451 195.298,253.592 196.296,253.527 197.543,272.729 150.415,261.847 	"/>
</g>
<g opacity="0.1">
	<polygon fill="#2D2D2A" points="149.56,312.361 120.356,293.432 120.9,292.592 148.442,310.445 145.346,259.592 146.344,259.531 	
		"/>
</g>
<g opacity="0.1">
	<polygon fill="#2D2D2A" points="145.517,304.271 121.594,290.068 122.104,289.209 144.416,302.455 142.091,259.98 143.089,259.926 
			"/>
</g>
<g opacity="0.1">
	<polygon fill="#2D2D2A" points="142.17,297.539 122.765,286.878 123.247,286.001 141.031,295.771 138.296,260.448 139.293,260.37 	
		"/>
</g>
<g opacity="0.1">
	<polygon fill="#2D2D2A" points="137.974,291.742 123.989,283.448 124.499,282.589 136.852,289.915 134.941,260.846 
		135.939,260.779 	"/>
</g>
<g opacity="0.1">
	<polygon fill="#2D2D2A" points="135.453,285.546 125.167,280.277 125.624,279.387 134.177,283.77 131.066,262.86 132.056,262.714 	
		"/>
</g>
<g opacity="0.1">
	<polygon fill="#2D2D2A" points="131.947,279.345 126.247,277.537 126.549,276.584 130.684,277.896 129.059,268.429 
		130.044,268.259 	"/>
</g>
<g opacity="0.1">
	<polygon fill="#2D2D2A" points="194.06,267.851 154.029,259.054 154.244,258.077 192.941,266.581 191.814,254.022 192.81,253.933 	
		"/>
</g>
<g opacity="0.1">
	<polygon fill="#2D2D2A" points="190.622,263.411 162.433,258.163 162.616,257.181 189.379,262.163 187.992,254.526 
		188.976,254.349 	"/>
</g>
<g opacity="0.1">
	<polygon fill="#2D2D2A" points="186.195,259.244 172.582,256.83 172.757,255.846 184.806,257.982 183.99,255.054 184.953,254.786 	
		"/>
</g>
<g opacity="0.1">
	<polygon fill="#2D2D2A" points="179.549,360.019 178.82,359.335 230.791,303.922 175.249,306.569 175.201,305.572 233.209,302.805 
			"/>
</g>
<g opacity="0.1">
	<polygon fill="#2D2D2A" points="178.541,352.817 177.827,352.116 221.615,307.533 175.497,310.36 175.436,309.362 224.154,306.375 
			"/>
</g>
<g opacity="0.1">
	<polygon fill="#2D2D2A" points="178.14,346.762 177.454,346.035 213.485,312.034 175.512,315.54 175.42,314.544 216.28,310.772 	
		"/>
</g>
<g opacity="0.1">
	<polygon fill="#2D2D2A" points="177.825,341.973 177.156,341.229 205.143,316.066 176.512,319.815 176.382,318.823 
		208.206,314.656 	"/>
</g>
<g opacity="0.1">
	<polygon fill="#2D2D2A" points="177.392,335.748 176.793,334.947 195.017,321.317 176.534,324.591 176.359,323.606 198.984,319.6 	
		"/>
</g>
<g opacity="0.1">
	<polygon fill="#2D2D2A" points="177.121,331.938 176.576,331.101 183.863,326.371 176.573,328.268 176.321,327.299 189.584,323.85 
			"/>
</g>
<g opacity="0.1">
	
		<rect x="257.179" y="253.97" transform="matrix(0.733 0.6802 -0.6802 0.733 259.9741 -100.2413)" fill="#2D2D2A" width="0.999" height="54.15"/>
</g>
<g opacity="0.1">
	<polygon fill="#2D2D2A" points="269.63,337.82 268.665,337.557 287.109,270.282 276.553,265.824 223.944,323.121 223.208,322.445 
		276.293,264.629 288.305,269.702 288.189,270.124 	"/>
</g>
<g opacity="0.1">
	<polygon fill="#2D2D2A" points="263.489,336.239 262.538,335.93 283.3,272.417 277.325,270.565 229.257,324.432 228.511,323.766 
		277.007,269.419 284.565,271.763 284.408,272.245 	"/>
</g>
<g opacity="0.1">
	<polygon fill="#2D2D2A" points="258.152,334.446 257.205,334.124 275.888,279.413 234.13,326.548 233.382,325.886 278.444,275.02 	
		"/>
</g>
<g opacity="0.1">
	<polygon fill="#2D2D2A" points="254.469,332.874 253.529,332.532 267.293,294.64 240.189,327.821 239.415,327.188 270.242,289.447 
			"/>
</g>
<g opacity="0.1">
	<polygon fill="#2D2D2A" points="249.936,331.724 249.023,331.315 257.564,312.23 243.737,329.76 242.952,329.141 261.768,305.288 	
		"/>
</g>
<g opacity="0.1">
	<polygon fill="#2D2D2A" points="233.356,301.231 232.644,300.53 269.649,262.99 232.829,249.558 233.171,248.618 271.454,262.584 	
		"/>
</g>
<g opacity="0.1">
	<polygon fill="#2D2D2A" points="228.356,301.231 227.644,300.53 264.045,263.431 226.341,250.341 226.669,249.396 265.865,263.005 
			"/>
</g>
<g opacity="0.1">
	<polygon fill="#2D2D2A" points="223.237,301.235 222.532,300.525 257.904,265.442 222.726,253.635 223.044,252.688 259.76,265.011 
			"/>
</g>
<g opacity="0.1">
	<polygon fill="#2D2D2A" points="220.986,298.346 220.287,297.631 252.045,266.653 222.429,257.243 222.731,256.29 253.936,266.204 
			"/>
</g>
<g opacity="0.1">
	<polygon fill="#2D2D2A" points="221.228,293.213 220.53,292.496 244.783,268.853 222.219,261.686 222.521,260.733 246.676,268.406 
			"/>
</g>
<g opacity="0.1">
	<polygon fill="#2D2D2A" points="221.484,287.695 220.793,286.973 238.253,270.255 222.038,266.145 222.284,265.176 
		240.246,269.729 	"/>
</g>
<g opacity="0.1">
	<polygon fill="#2D2D2A" points="221.705,283.02 221.014,282.299 232.009,271.75 221.895,269.112 222.146,268.146 233.991,271.234 	
		"/>
</g>
<g opacity="0.1">
	<polygon fill="#2D2D2A" points="221.718,278.969 221.001,278.271 225.488,273.654 221.751,272.995 221.925,272.011 
		227.521,272.996 	"/>
</g>
<polygon opacity="0.1" fill="#2D2D2A" points="323.629,425.306 324.973,425.306 350.981,396.309 349.638,396.309 "/>
<polygon opacity="0.1" fill="#2D2D2A" points="368.166,376.196 367.827,376.03 349.638,396.309 350.981,396.309 368.067,377.261 
	425.663,405.312 425.663,404.198 "/>
<g opacity="0.1">
	<polygon fill="#2D2D2A" points="348.824,397.19 298.048,377.202 284.655,385.496 284.128,384.646 297.948,376.089 349.191,396.261 
			"/>
</g>
<g opacity="0.1">
	<path fill="#2D2D2A" d="M272.92,341.59l45.226-178.912l33.838,40.302l33.546,13.586L272.92,341.59z M318.636,164.817
		L274.879,337.92l108.953-120.964l-32.454-13.144L318.636,164.817z"/>
</g>
<polygon opacity="0.1" fill="#2D2D2A" points="380.4,296.173 337.479,360.998 295.842,346.628 220.537,321.23 173.633,371.716 
	110.525,321.417 109.902,322.198 173.735,373.075 220.83,322.385 295.519,347.574 337.885,362.195 380.961,297.138 425.663,294.087 
	425.663,293.084 "/>
<g opacity="0.1">
	<polygon fill="#2D2D2A" points="178.585,366.614 174.469,302.076 174.982,302.057 220.022,300.398 222.386,250.28 223.384,250.327 
		220.978,301.363 220.519,301.381 175.532,303.037 179.583,366.55 	"/>
</g>
<g opacity="0.1">
	<polygon fill="#2D2D2A" points="132.191,261.705 132.072,260.714 276.77,243.325 241.906,196.208 336.543,155.37 235.016,99.811 
		206.62,131.785 160.632,110.577 155.228,144.728 154.241,144.572 159.851,109.115 206.365,130.566 234.797,98.551 338.82,155.477 
		243.459,196.627 278.596,244.112 	"/>
</g>
<g opacity="0.1">
	<polygon fill="#2D2D2A" points="340.173,218.293 346.568,197.727 347.523,198.023 342.659,213.663 351.386,202.992 
		408.329,161.443 375.547,139.761 379.479,96.934 323.603,87.856 323.763,86.869 380.561,96.096 376.598,139.257 410.081,161.403 
		352.027,203.761 	"/>
</g>
<polygon opacity="0.1" fill="#2D2D2A" points="408.906,161.022 409.504,161.823 425.663,149.753 425.663,148.506 "/>
<polygon opacity="0.1" fill="#2D2D2A" points="346.508,0.164 345.508,0.164 345.322,37.021 345.321,37.302 386.729,62.786 
	387.253,61.934 346.323,36.745 "/>
<polygon opacity="0.1" fill="#2D2D2A" points="296.395,0.164 294.692,0.164 273.137,15.794 335.113,79.149 273.622,120.104 
	274.177,120.936 336.672,79.313 274.662,15.923 "/>
<g opacity="0.1">
	<polygon fill="#2D2D2A" points="205.987,49.561 205.577,48.649 237.525,34.293 230.815,22.548 231.685,22.052 238.939,34.754 	"/>
</g>
<g opacity="0.1">
	<polygon fill="#2D2D2A" points="110.541,112.317 109.887,111.561 185.823,45.932 186.116,46.068 249.353,75.304 308.039,50.496 
		308.428,51.417 249.335,76.397 249.134,76.304 185.989,47.11 	"/>
</g>
<g opacity="0.1">
	<polygon fill="#2D2D2A" points="220.583,115.567 175.934,97.966 185.654,45.127 224.897,110.676 224.04,111.19 186.158,47.916 
		177.067,97.337 220.95,114.636 	"/>
</g>
<g opacity="0.1">
	<polygon fill="#2D2D2A" points="33.098,113.47 32.222,112.987 72.125,40.467 139.785,86.21 139.225,87.038 72.473,41.91 	"/>
</g>
<path opacity="0.1" fill="#2D2D2A" d="M64.797,36.247L1,65.993L27.991,4.638l-0.916-0.402L0.474,64.706v2.636l65.235-30.417
	l3.748-26.111c-0.308-0.382-0.588-0.751-0.854-1.088L64.797,36.247z"/>
<polygon opacity="0.1" fill="#2D2D2A" points="64.758,36.515 65.748,36.657 70.985,0.164 69.975,0.164 "/>
<g opacity="0.1">
	<polygon fill="#2D2D2A" points="127.882,177.531 104.655,93.765 84.917,126.415 22.2,111.206 40.324,168.63 39.37,168.931 
		20.712,109.817 84.441,125.271 104.999,91.263 128.846,177.263 	"/>
</g>
<polygon opacity="0.1" fill="#2D2D2A" points="137.554,182.42 102.306,160.906 16.889,170.986 0.474,205.933 0.474,208.284 
	17.558,171.914 102.08,161.939 137.272,183.42 178.123,183.42 121.136,252.437 54.775,191.562 54.631,191.431 28.938,191.431 
	16.78,214.641 17.667,215.105 29.544,192.43 54.243,192.43 120.848,253.529 121.235,253.885 180.246,182.42 "/>
<polygon opacity="0.1" fill="#2D2D2A" points="11.695,219.35 36.358,203.074 14.144,165.217 0.474,134.839 0.474,137.273 
	13.256,165.675 35.017,202.761 9.681,219.48 70.493,249.129 35.42,312.075 36.293,312.562 71.88,248.693 "/>
<polygon opacity="0.1" fill="#2D2D2A" points="11.498,159.779 10.601,159.338 0.474,179.922 0.474,182.185 "/>
<polygon opacity="0.1" fill="#2D2D2A" points="24.551,411.319 3.848,375.7 28.574,342.422 11.886,299.131 69.635,342.098 
	69.037,342.9 14.062,301.996 29.705,342.576 5.043,375.767 25.416,410.818 "/>
<polygon opacity="0.1" fill="#2D2D2A" points="48.822,372.02 72.706,338.69 72.998,338.284 9.447,292.803 17.832,259.245 
	0.474,255.236 0.474,256.264 16.615,259.991 8.312,293.221 71.602,338.515 47.052,372.771 131.243,385.115 131.388,384.125 "/>
<polygon opacity="0.1" fill="#2D2D2A" points="22.268,414.82 58.878,374.279 58.136,373.609 20.644,415.127 41.037,425.306 
	43.275,425.306 "/>
<g opacity="0.1">
	
		<rect x="55.42" y="387.735" transform="matrix(0.3149 0.9491 -0.9491 0.3149 416.072 200.0451)" fill="#2D2D2A" width="28.091" height="0.999"/>
</g>
<polygon opacity="0.1" fill="#2D2D2A" points="106.396,425.306 107.913,425.306 74.219,395.742 69.975,425.306 70.985,425.306 
	74.946,397.71 "/>
<g opacity="0.1">
	<polygon fill="#2D2D2A" points="114.447,423.071 145.384,350.203 146.305,350.594 116.325,421.206 295.489,346.64 295.874,347.563 
			"/>
</g>
<polygon opacity="0.1" fill="#2D2D2A" points="306.238,425.306 307.383,425.306 269.23,356.837 246.019,425.306 247.074,425.306 
	269.453,359.291 "/>
<polygon opacity="0.1" fill="#2D2D2A" points="346.631,400.972 345.631,400.966 345.508,425.306 346.508,425.306 "/>
<polygon opacity="0.1" fill="#2D2D2A" points="381.117,296.412 380.244,296.898 425.663,378.365 425.663,376.313 "/>
<polygon opacity="0.1" fill="#2D2D2A" points="315.983,292.512 316.019,293.512 425.663,289.707 425.663,288.706 "/>
<g opacity="0.1">
	
		<rect x="358.223" y="246.616" transform="matrix(0.9983 0.0588 -0.0588 0.9983 15.1836 -21.6542)" fill="#2D2D2A" width="34.471" height="0.999"/>
</g>
<polygon opacity="0.1" fill="#2D2D2A" points="393.391,247.783 425.663,182.185 425.663,179.922 392.216,247.908 391.937,248.475 
	425.663,256.264 425.663,255.236 "/>
<g opacity="0.1">
	
		<rect x="374.724" y="194.85" transform="matrix(0.8458 0.5336 -0.5336 0.8458 165.2397 -180.9193)" fill="#2D2D2A" width="41.651" height="1"/>
</g>
<polygon opacity="0.1" fill="#2D2D2A" points="390.195,62.726 353.445,91.856 354.066,92.64 389.801,64.313 425.663,145.841 
	425.663,143.357 "/>
<g opacity="0.1">
	
		<rect x="255.836" y="112.287" transform="matrix(0.8177 0.5757 -0.5757 0.8177 117.3629 -125.2013)" fill="#2D2D2A" width="1.001" height="20.786"/>
</g>
<g opacity="0.1">
	<polygon fill="#2D2D2A" points="261.834,188.046 250.024,132.056 213.497,160.103 213.262,160.043 116.473,135.44 116.719,134.471 
		213.273,159.014 250.675,130.295 262.813,187.84 	"/>
</g>
<g opacity="0.1">
	<polygon fill="#2D2D2A" points="221.206,216.841 221.106,216.82 161.734,204.419 161.938,203.44 221.212,215.822 252.732,209.641 
		252.926,210.622 	"/>
</g>
<g opacity="0.1">
	<polygon fill="#2D2D2A" points="221.058,322.14 220.31,321.476 238.138,301.381 220.5,301.381 220.5,300.381 240.361,300.381 	"/>
</g>
<g opacity="0.1">
	
		<rect x="239.263" y="257.172" transform="matrix(0.9371 0.349 -0.349 0.9371 106.6862 -76.8425)" fill="#2D2D2A" width="54.693" height="1.001"/>
</g>
<polygon opacity="0.1" fill="#2D2D2A" points="4.578,145.441 0.474,148.506 0.474,149.753 5.175,146.242 "/>
<polygon opacity="0.1" fill="#2D2D2A" points="23.058,83.947 11.435,67.985 71.261,41.107 63.129,35.795 144.116,46.694 
	166.642,0.108 167.542,0.544 144.7,47.782 67.377,37.376 73.339,41.27 12.968,68.393 23.866,83.358 "/>
<polygon opacity="0.1" fill="#2D2D2A" points="237.92,24.055 168.16,0.164 165.075,0.164 238.07,25.164 238.545,25.327 
	247.074,0.164 246.019,0.164 "/>
<polygon opacity="0.1" fill="#2D2D2A" points="115.828,422.373 114.944,421.904 113.139,425.306 114.271,425.306 "/>
<polygon opacity="0.1" fill="#2D2D2A" points="41.037,0.164 68.364,13.803 68.81,12.908 43.275,0.164 "/>
<polygon opacity="0.1" fill="#2D2D2A" points="111.77,4.878 114.271,0.164 113.139,0.164 111.479,3.292 107.913,0.164 
	106.396,0.164 "/>
<g opacity="0.1">
	<polygon fill="#2D2D2A" points="240.483,212.487 238.45,181.873 224.683,195.875 224.389,195.78 159.666,174.891 162.31,182.761 
		161.362,183.079 158.086,173.331 224.401,194.733 239.3,179.583 241.481,212.421 	"/>
</g>
</svg>
