<?xml version="1.0" encoding="utf-8"?>
<!-- Generator: Adobe Illustrator 16.0.0, SVG Export Plug-In . SVG Version: 6.00 Build 0)  -->
<!DOCTYPE svg PUBLIC "-//W3C//DTD SVG 1.1//EN" "http://www.w3.org/Graphics/SVG/1.1/DTD/svg11.dtd">
<svg version="1.1" id="Layer_1" xmlns="http://www.w3.org/2000/svg" xmlns:xlink="http://www.w3.org/1999/xlink" x="0px" y="0px"
	 width="48px" height="48px" viewBox="0 0 48 48" enable-background="new 0 0 48 48" xml:space="preserve">
<g>
	<g>
		<defs>
			<rect id="SVGID_1_" x="4.619" y="4.072" width="39.762" height="39.855"/>
		</defs>
		<clipPath id="SVGID_2_">
			<use xlink:href="#SVGID_1_"  overflow="visible"/>
		</clipPath>
		<path clip-path="url(#SVGID_2_)" fill="#34AFE2" d="M35.741,19.996h-5.297c-0.366,0-0.661,0.297-0.661,0.663v5.959
			c0,0.367,0.295,0.663,0.661,0.663h5.297c0.366,0,0.663-0.296,0.663-0.663v-5.959C36.404,20.293,36.107,19.996,35.741,19.996
			L35.741,19.996z M35.08,25.955h-3.975V21.32h3.975V25.955z M35.08,25.955"/>
		<path clip-path="url(#SVGID_2_)" fill="#34AFE2" d="M44.047,17.453L23.519,4.209c-0.204-0.132-0.463-0.142-0.676-0.025
			c-0.213,0.116-0.345,0.339-0.345,0.582v3.311c0,0.224,0.114,0.435,0.303,0.556l1.021,0.66v10.924L5.028,27.993
			c-0.248,0.102-0.41,0.343-0.41,0.61v14.568c0,0.366,0.296,0.663,0.662,0.663h36.42c0.366,0,0.663-0.297,0.663-0.663V21.254
			l0.965,0.623c0.108,0.07,0.233,0.106,0.358,0.106c0.109,0,0.219-0.027,0.318-0.081c0.211-0.116,0.345-0.339,0.345-0.582v-3.311
			C44.351,17.784,44.236,17.575,44.047,17.453L44.047,17.453z M20.511,42.511H9.253v-1.325h11.257V42.511z M20.511,39.862H9.253
			v-1.325h11.257V39.862z M20.511,37.213H9.253v-1.325h11.257V37.213z M20.511,34.564H9.253v-1.325h11.257V34.564z M20.511,31.916
			H9.253v-1.325h11.257V31.916z M23.823,42.511h-1.987V29.929c0-0.366-0.297-0.662-0.663-0.662H8.592
			c-0.366,0-0.663,0.296-0.663,0.662v12.582H5.943V29.048l17.88-7.4V42.511z M35.741,42.511h-5.297v-9.271h5.297V42.511z
			 M41.039,42.511h-3.973v-9.933c0-0.367-0.297-0.662-0.662-0.662h-6.621c-0.367,0-0.664,0.295-0.664,0.662v9.933h-3.971V10.146
			l15.891,10.254V42.511z M43.026,20.104L23.823,7.715V5.98L43.026,18.37V20.104z M43.026,20.104"/>
	</g>
</g>
</svg>
