<?xml version="1.0" encoding="utf-8"?>
<!-- Generator: Adobe Illustrator 16.0.0, SVG Export Plug-In . SVG Version: 6.00 Build 0)  -->
<!DOCTYPE svg PUBLIC "-//W3C//DTD SVG 1.1//EN" "http://www.w3.org/Graphics/SVG/1.1/DTD/svg11.dtd">
<svg version="1.1" id="Layer_1" xmlns="http://www.w3.org/2000/svg" xmlns:xlink="http://www.w3.org/1999/xlink" x="0px" y="0px"
	 width="48px" height="48px" viewBox="0 0 48 48" enable-background="new 0 0 48 48" xml:space="preserve">
<defs>
	<filter id="Adobe_OpacityMaskFilter" filterUnits="userSpaceOnUse" x="4.072" y="3.776" width="40.663" height="41.753">
		<feFlood  style="flood-color:white;flood-opacity:1" result="back"/>
		<feBlend  in="SourceGraphic" in2="back" mode="normal"/>
	</filter>
</defs>
<mask maskUnits="userSpaceOnUse" x="4.072" y="3.776" width="40.663" height="41.753" id="SVGID_1_">
	<g filter="url(#Adobe_OpacityMaskFilter)">
	</g>
</mask>
<g mask="url(#SVGID_1_)">
	<path fill="#40C5E7" d="M29.467,32.893c-0.537,0-0.971-0.434-0.971-0.969V20.776c0-0.444-0.361-0.807-0.807-0.807h-1.777
		c-0.535,0-0.97-0.434-0.97-0.97s0.435-0.971,0.97-0.971h1.777c1.515,0,2.748,1.232,2.748,2.747v11.148
		C30.438,32.459,30.002,32.893,29.467,32.893L29.467,32.893z M43.764,12.353h-3.609c-0.535,0-0.97,0.435-0.97,0.971
		s0.435,0.971,0.97,0.971h2.64v19.516c0,1.625-1.321,2.945-2.946,2.945s-2.946-1.32-2.946-2.945V9.895
		c0-3.375-2.744-6.119-6.118-6.119H5.042c-0.536,0-0.971,0.434-0.971,0.971v27.832c0,3.375,2.744,6.119,6.119,6.119h11.003
		c0.536,0,0.971-0.434,0.971-0.971c0-0.535-0.435-0.971-0.971-0.971H10.191c-2.304,0-4.179-1.873-4.179-4.178V5.716h24.77
		c2.304,0,4.179,1.874,4.179,4.179v23.916c0,1.105,0.369,2.125,0.989,2.945H30.6c-0.537,0-0.971,0.436-0.971,0.971
		c0,0.537,0.434,0.971,0.971,0.971h9.248c2.693,0,4.887-2.191,4.887-4.887V13.324C44.734,12.788,44.3,12.353,43.764,12.353
		L43.764,12.353z M25.912,21.573c-0.535,0-0.97,0.435-0.97,0.971v18.564c0,0.537,0.435,0.971,0.97,0.971
		c0.537,0,0.971-0.434,0.971-0.971V22.543C26.883,22.007,26.449,21.573,25.912,21.573L25.912,21.573z M25.912,43.416
		c-0.535,0-0.97,0.434-0.97,0.971v0.172c0,0.537,0.435,0.971,0.97,0.971c0.537,0,0.971-0.434,0.971-0.971v-0.172
		C26.883,43.85,26.449,43.416,25.912,43.416L25.912,43.416z M20.808,10.61h8.495c0.537,0,0.971-0.434,0.971-0.97
		s-0.434-0.97-0.971-0.97h-8.495c-0.536,0-0.97,0.434-0.97,0.97S20.272,10.61,20.808,10.61L20.808,10.61z M20.808,14.684h4.458
		c0.536,0,0.971-0.435,0.971-0.971s-0.435-0.97-0.971-0.97h-4.458c-0.536,0-0.97,0.434-0.97,0.97S20.272,14.684,20.808,14.684
		L20.808,14.684z M8.469,14.21V9.143c0-0.535,0.434-0.97,0.97-0.97h5.067c0.537,0,0.971,0.435,0.971,0.97v5.067
		c0,0.536-0.434,0.971-0.971,0.971H9.439C8.903,15.181,8.469,14.747,8.469,14.21L8.469,14.21z M10.41,13.241h3.126v-3.127H10.41
		V13.241z M17.934,18.029H9.44c-0.537,0-0.971,0.435-0.971,0.971s0.434,0.97,0.971,0.97h8.494c0.536,0,0.971-0.434,0.971-0.97
		S18.47,18.029,17.934,18.029L17.934,18.029z M18.905,27.859c0-0.537-0.435-0.971-0.971-0.971H9.44
		c-0.537,0-0.971,0.434-0.971,0.971c0,0.535,0.434,0.971,0.971,0.971h8.494C18.47,28.83,18.905,28.395,18.905,27.859L18.905,27.859z
		 M9.439,30.963c-0.536,0-0.97,0.434-0.97,0.969c0,0.537,0.434,0.971,0.97,0.971h4.458c0.535,0,0.97-0.434,0.97-0.971
		c0-0.535-0.435-0.969-0.97-0.969H9.439z M9.439,24.043h4.458c0.535,0,0.97-0.436,0.97-0.971c0-0.537-0.435-0.971-0.97-0.971H9.439
		c-0.536,0-0.97,0.434-0.97,0.971C8.469,23.608,8.903,24.043,9.439,24.043L9.439,24.043z M9.439,24.043"/>
</g>
</svg>
