<?xml version="1.0" encoding="utf-8"?>
<!-- Generator: Adobe Illustrator 16.0.0, SVG Export Plug-In . SVG Version: 6.00 Build 0)  -->
<!DOCTYPE svg PUBLIC "-//W3C//DTD SVG 1.1//EN" "http://www.w3.org/Graphics/SVG/1.1/DTD/svg11.dtd">
<svg version="1.1" id="Layer_1" xmlns="http://www.w3.org/2000/svg" xmlns:xlink="http://www.w3.org/1999/xlink" x="0px" y="0px"
	 width="48px" height="48px" viewBox="0 0 48 48" enable-background="new 0 0 48 48" xml:space="preserve">
<g>
	<path fill="#40C5E7" d="M40.397,35.877c-0.386,0-0.801-0.452-0.801-2.153c0-7.058-5.741-12.8-12.796-12.8H7.597
		c-0.441,0-0.797-0.359-0.797-0.801c0-0.442,0.355-0.801,0.797-0.801h19.204c7.938,0,14.398,6.461,14.398,14.401
		C41.199,35.639,40.801,35.877,40.397,35.877z"/>
	<path fill="#40C5E7" d="M7.597,20.924c-0.203,0-0.406-0.079-0.563-0.234c-0.313-0.313-0.313-0.82,0-1.134l7.199-7.198
		c0.313-0.313,0.816-0.313,1.129,0s0.313,0.819,0,1.133l-7.199,7.199C8.007,20.845,7.804,20.924,7.597,20.924L7.597,20.924z
		 M7.597,20.924"/>
	<path fill="#40C5E7" d="M14.8,28.123c-0.207,0-0.41-0.078-0.566-0.235l-7.199-7.198c-0.313-0.313-0.313-0.82,0-1.134
		c0.313-0.312,0.816-0.312,1.129,0l7.199,7.2c0.313,0.316,0.313,0.82,0,1.132C15.207,28.045,15.003,28.123,14.8,28.123L14.8,28.123z
		 M14.8,28.123"/>
</g>
</svg>
