<?xml version="1.0" encoding="utf-8"?>
<!-- Generator: Adobe Illustrator 16.0.0, SVG Export Plug-In . SVG Version: 6.00 Build 0)  -->
<!DOCTYPE svg PUBLIC "-//W3C//DTD SVG 1.1//EN" "http://www.w3.org/Graphics/SVG/1.1/DTD/svg11.dtd">
<svg version="1.1" id="Layer_1" xmlns="http://www.w3.org/2000/svg" xmlns:xlink="http://www.w3.org/1999/xlink" x="0px" y="0px"
	 width="48px" height="48px" viewBox="0 0 48 48" enable-background="new 0 0 48 48" xml:space="preserve">
<title>Grow logo</title>
<path fill="#29ABE2" d="M26.94,29.149c0-1.191,0.969-2.161,2.162-2.161c0.565,0,1.073,0.224,1.452,0.574
	c0.022-0.187,0.045-0.381,0.045-0.574c0-2.393-1.938-4.322-4.322-4.322c-2.385,0-4.323,1.938-4.323,4.322
	c0,2.394,1.938,4.323,4.323,4.323c0.597,0,1.162-0.119,1.677-0.335C27.343,30.588,26.94,29.919,26.94,29.149z"/>
<path fill="#29ABE2" d="M30.555,27.555c-0.2,1.544-1.223,2.833-2.607,3.414c0.335,0.209,0.723,0.335,1.147,0.335
	c1.192,0,2.161-0.969,2.161-2.161C31.264,28.517,30.988,27.951,30.555,27.555z"/>
<path fill="#155671" d="M30.555,27.555c-0.387-0.35-0.895-0.573-1.452-0.573c-1.193,0-2.162,0.97-2.162,2.161
	c0,0.769,0.402,1.445,1.014,1.826C29.34,30.388,30.354,29.105,30.555,27.555z"/>
<path fill="#1E1E1E" d="M47.385,29.775c0,0.836-0.692,1.521-1.544,1.521c-0.833,0-1.521-0.677-1.521-1.521
	c0-0.849,0.688-1.542,1.521-1.542C46.706,28.241,47.385,28.912,47.385,29.775z M21.313,23.12c0.067,0.097,0.127,0.261,0.038,0.478
	v0.015l-0.477,0.977c-0.09,0.193-0.254,0.306-0.447,0.306c-0.075,0-0.157-0.016-0.231-0.053h-0.008
	c-0.097-0.052-0.372-0.126-0.611-0.126c-1.021,0-1.535,0.708-1.639,0.863v4.994c0,0.53-0.462,0.53-0.686,0.53h-0.946
	c-0.283,0-0.529-0.247-0.529-0.53v-7.199c0-0.283,0.246-0.529,0.529-0.529h0.574c0.216,0,0.425,0.171,0.477,0.387l0.134,0.41
	c0.328-0.365,1.073-0.991,2.266-0.991C20.054,22.651,21.022,22.688,21.313,23.12L21.313,23.12z M43.718,23.053
	c0.081,0.127,0.081,0.291,0.007,0.455l-2.325,7.49c-0.059,0.187-0.253,0.298-0.498,0.298h-0.083c-0.216,0-0.41-0.111-0.477-0.268
	l-2.318-5.031l-2.296,5.031c-0.067,0.164-0.246,0.268-0.454,0.268h-0.097c-0.225,0-0.418-0.118-0.478-0.304l-2.355-7.484
	c-0.075-0.171-0.075-0.335,0.008-0.462c0.082-0.127,0.224-0.194,0.41-0.194h1.073c0.194,0,0.439,0.134,0.499,0.343l1.223,4.041
	l1.975-4.301c0.068-0.164,0.269-0.291,0.478-0.291h0.119c0.246,0,0.417,0.141,0.476,0.291l1.954,4.309l1.2-4.048V23.18
	c0.142-0.328,0.521-0.328,0.752-0.328h0.775C43.479,22.852,43.636,22.927,43.718,23.053L43.718,23.053z M13.152,27.115
	c0.007,0.79,0.007,1.61,0.007,2.407c0,0.149-0.104,0.351-0.216,0.439h-0.015c-0.082,0.053-2.117,1.334-5.008,1.334
	c-1.953,0-3.794-0.751-5.166-2.116c-1.379-1.372-2.139-3.204-2.139-5.165c0-1.96,0.76-3.801,2.139-5.187
	c1.379-1.379,3.212-2.139,5.166-2.139c1.826,0,3.443,0.619,4.926,1.885l0.008,0.008l0.007,0.007
	c0.105,0.104,0.164,0.239,0.171,0.373c0.008,0.148-0.045,0.283-0.149,0.387l-0.447,0.469c-0.149,0.149-0.298,0.306-0.447,0.462
	c-0.104,0.112-0.216,0.171-0.342,0.171c-0.127,0-0.254-0.06-0.388-0.179c-0.954-0.835-2.154-1.312-3.28-1.312
	c-1.312,0-2.534,0.529-3.443,1.49c-0.901,0.947-1.394,2.199-1.394,3.518c0,2.757,2.169,5,4.837,5c1.446,0,2.489-0.469,2.825-0.626
	h0.008v-1.982H9.016c-0.298,0-0.53-0.224-0.53-0.507V24.7c0-0.298,0.224-0.529,0.53-0.529h3.615c0.275,0,0.506,0.239,0.506,0.529
	C13.137,25.505,13.145,26.325,13.152,27.115L13.152,27.115z"/>
</svg>
