<?xml version="1.0" encoding="utf-8"?>
<!-- Generator: Adobe Illustrator 16.0.0, SVG Export Plug-In . SVG Version: 6.00 Build 0)  -->
<!DOCTYPE svg PUBLIC "-//W3C//DTD SVG 1.1//EN" "http://www.w3.org/Graphics/SVG/1.1/DTD/svg11.dtd">
<svg version="1.1" id="Layer_1" xmlns="http://www.w3.org/2000/svg" xmlns:xlink="http://www.w3.org/1999/xlink" x="0px" y="0px"
	 width="48px" height="48px" viewBox="0 0 48 48" enable-background="new 0 0 48 48" xml:space="preserve">
<path fill="#FF3636" d="M30.495,10.71c-2.506,0-4.982,0.944-6.889,2.579c0,0,0,0-0.001,0c-1.906-1.636-4.383-2.579-6.888-2.579
	c-5.576,0-9.944,4.368-9.944,9.943c0,6.741,4.692,10.86,11.796,17.096c0.607,0.532,1.234,1.083,1.879,1.653
	c0.004,0.003,0.009,0.008,0.013,0.012l2.145,1.853c0.287,0.248,0.644,0.372,1,0.372c0.001,0,0.001,0,0.001,0
	c0.357,0,0.713-0.124,1-0.372l1.916-1.655c-0.42-0.304-0.816-0.636-1.188-0.996c-0.366-0.355-0.708-0.736-1.02-1.14
	c-0.078-0.101-0.153-0.202-0.227-0.305c-0.025-0.035-0.05-0.072-0.075-0.107c-0.048-0.067-0.095-0.136-0.141-0.205
	c-0.029-0.043-0.058-0.085-0.086-0.128c-0.061-0.096-0.121-0.191-0.18-0.288l0,0c-0.037-0.061-0.071-0.123-0.107-0.185
	c-0.029-0.053-0.06-0.104-0.089-0.156c-0.034-0.062-0.067-0.124-0.1-0.187c-0.029-0.055-0.057-0.109-0.085-0.163
	c-0.031-0.063-0.062-0.125-0.092-0.188c-0.028-0.057-0.055-0.116-0.082-0.174c-0.028-0.061-0.057-0.121-0.083-0.184
	c-0.032-0.071-0.062-0.144-0.092-0.217c-0.035-0.086-0.069-0.172-0.103-0.26c-0.03-0.079-0.06-0.157-0.088-0.238
	c-0.02-0.057-0.04-0.113-0.059-0.17c-0.023-0.071-0.046-0.143-0.069-0.214c-0.019-0.059-0.036-0.116-0.053-0.175
	c-0.021-0.074-0.043-0.148-0.063-0.224c-0.015-0.055-0.03-0.11-0.044-0.166c-0.022-0.088-0.042-0.176-0.063-0.264
	c-0.01-0.044-0.021-0.088-0.03-0.131c-0.027-0.131-0.052-0.261-0.076-0.393c-0.006-0.04-0.011-0.08-0.018-0.119
	c-0.016-0.098-0.03-0.193-0.043-0.292c-0.007-0.051-0.013-0.101-0.019-0.151c-0.01-0.09-0.02-0.179-0.028-0.27
	c-0.005-0.051-0.01-0.103-0.015-0.154c-0.007-0.095-0.013-0.19-0.018-0.286c-0.002-0.045-0.005-0.09-0.007-0.136
	c-0.005-0.141-0.009-0.28-0.009-0.423c0-0.52,0.038-1.03,0.11-1.53c0.075-0.523,0.188-1.034,0.337-1.53
	c0.158-0.528,0.354-1.04,0.588-1.53c0.046-0.098,0.094-0.192,0.143-0.287c0.021-0.04,0.041-0.08,0.062-0.119
	c0.027-0.051,0.054-0.102,0.083-0.153c0.068-0.123,0.138-0.245,0.21-0.366c0.053-0.086,0.107-0.173,0.162-0.259
	c0.009-0.013,0.017-0.027,0.026-0.04c0.051-0.079,0.104-0.157,0.157-0.235c0.014-0.02,0.027-0.039,0.04-0.057
	c0.052-0.075,0.104-0.148,0.159-0.221c0.015-0.021,0.031-0.043,0.047-0.064c0.053-0.071,0.107-0.143,0.162-0.212
	c0.017-0.021,0.034-0.042,0.051-0.063c0.055-0.07,0.111-0.138,0.168-0.207c0.017-0.02,0.034-0.04,0.051-0.06
	c0.059-0.069,0.118-0.138,0.179-0.205c0.014-0.016,0.029-0.032,0.043-0.048c0.064-0.07,0.129-0.141,0.194-0.209
	c0.008-0.007,0.016-0.015,0.021-0.022c0.299-0.311,0.617-0.604,0.951-0.876c0.011-0.009,0.021-0.019,0.031-0.027
	c0.067-0.055,0.136-0.107,0.203-0.159c0.026-0.02,0.051-0.04,0.077-0.06c0.063-0.048,0.126-0.094,0.189-0.14
	c0.033-0.024,0.064-0.047,0.097-0.07c0.063-0.043,0.124-0.086,0.187-0.127c0.035-0.025,0.072-0.05,0.109-0.074
	c0.06-0.04,0.121-0.079,0.182-0.117c0.04-0.026,0.079-0.05,0.119-0.075c0.061-0.037,0.12-0.073,0.181-0.109
	c0.042-0.024,0.085-0.049,0.128-0.073c0.061-0.034,0.12-0.067,0.181-0.1c0.045-0.024,0.089-0.047,0.135-0.072
	c0.06-0.031,0.119-0.063,0.181-0.093c0.046-0.023,0.094-0.045,0.141-0.068c0.061-0.029,0.12-0.058,0.181-0.086
	c0.05-0.023,0.101-0.043,0.15-0.066c0.06-0.026,0.118-0.052,0.178-0.078c0.089-0.037,0.179-0.073,0.269-0.107
	c0.067-0.026,0.138-0.052,0.206-0.077c0.063-0.022,0.125-0.045,0.188-0.067c0.053-0.018,0.106-0.034,0.16-0.052
	c0.063-0.02,0.124-0.04,0.188-0.06c0.054-0.017,0.107-0.032,0.163-0.048c0.062-0.017,0.126-0.036,0.189-0.053
	c0.055-0.014,0.109-0.027,0.164-0.042c0.064-0.016,0.129-0.032,0.193-0.046c0.056-0.012,0.11-0.024,0.165-0.036
	c0.066-0.014,0.133-0.028,0.198-0.041c0.055-0.011,0.11-0.021,0.165-0.03c0.067-0.013,0.136-0.024,0.204-0.035
	c0.054-0.008,0.108-0.017,0.163-0.024c0.07-0.01,0.141-0.019,0.212-0.027c0.053-0.006,0.105-0.013,0.158-0.019
	c0.075-0.008,0.151-0.015,0.226-0.021c0.05-0.003,0.1-0.009,0.149-0.013c0.083-0.005,0.168-0.01,0.253-0.014
	c0.042-0.002,0.084-0.005,0.126-0.006c0.127-0.005,0.254-0.007,0.381-0.007c0.52,0,1.031,0.038,1.531,0.109
	c0.523,0.076,1.033,0.188,1.53,0.337c0.521,0.156,1.024,0.349,1.509,0.579c0.007,0.004,0.015,0.007,0.021,0.01
	c0.498,0.236,0.974,0.512,1.426,0.82c0.479,0.327,0.932,0.691,1.351,1.089c0.188-0.83,0.285-1.667,0.285-2.502
	C40.438,15.078,36.071,10.71,30.495,10.71z"/>
<path fill="#C2FB3B" d="M39.093,24.701c-0.348-0.329-0.721-0.628-1.118-0.899c-0.373-0.254-0.767-0.482-1.178-0.678
	c-0.006-0.002-0.012-0.006-0.019-0.007c-0.4-0.19-0.817-0.351-1.248-0.479c-0.409-0.124-0.832-0.217-1.265-0.278
	c-0.413-0.06-0.836-0.091-1.266-0.091c-0.104,0-0.211,0.002-0.314,0.006c-0.036,0.001-0.07,0.003-0.104,0.004
	c-0.07,0.004-0.14,0.007-0.209,0.012c-0.042,0.003-0.083,0.006-0.124,0.01c-0.063,0.006-0.124,0.011-0.186,0.018
	c-0.045,0.004-0.088,0.01-0.132,0.015c-0.06,0.008-0.117,0.015-0.175,0.023c-0.045,0.006-0.091,0.013-0.136,0.021
	c-0.056,0.009-0.111,0.018-0.168,0.027c-0.045,0.009-0.091,0.017-0.137,0.025c-0.055,0.011-0.11,0.022-0.164,0.034
	c-0.037,0.007-0.074,0.016-0.11,0.024c-0.01,0.001-0.018,0.003-0.025,0.005c-0.053,0.013-0.107,0.025-0.16,0.04
	c-0.045,0.011-0.091,0.022-0.135,0.034c-0.042,0.012-0.083,0.023-0.124,0.034c-0.012,0.003-0.022,0.006-0.034,0.01
	c-0.014,0.004-0.026,0.007-0.039,0.011c-0.032,0.009-0.064,0.019-0.096,0.028c-0.053,0.016-0.103,0.033-0.155,0.049
	c-0.035,0.012-0.07,0.023-0.104,0.035c-0.01,0.002-0.019,0.005-0.027,0.008c-0.052,0.018-0.104,0.037-0.155,0.056
	c-0.028,0.01-0.059,0.021-0.087,0.031c-0.027,0.01-0.056,0.021-0.084,0.033c-0.038,0.015-0.074,0.028-0.111,0.043
	c-0.037,0.016-0.074,0.029-0.111,0.044c-0.011,0.004-0.022,0.01-0.034,0.016c-0.037,0.016-0.075,0.032-0.112,0.048
	c-0.041,0.019-0.084,0.037-0.125,0.055c-0.05,0.022-0.099,0.047-0.149,0.071c-0.038,0.02-0.076,0.038-0.115,0.057
	c-0.051,0.025-0.1,0.051-0.149,0.077c-0.037,0.02-0.075,0.039-0.112,0.059c-0.049,0.027-0.1,0.055-0.148,0.083
	c-0.035,0.02-0.07,0.04-0.105,0.061c-0.051,0.028-0.1,0.059-0.15,0.089c-0.033,0.02-0.065,0.04-0.098,0.061
	c-0.052,0.032-0.101,0.064-0.151,0.097c-0.03,0.02-0.06,0.04-0.09,0.061c-0.052,0.035-0.103,0.069-0.153,0.105
	c-0.027,0.019-0.053,0.04-0.08,0.058c-0.014,0.01-0.027,0.02-0.041,0.031c-0.039,0.027-0.078,0.056-0.117,0.085
	c-0.021,0.016-0.042,0.033-0.063,0.048c-0.057,0.044-0.112,0.088-0.168,0.133c-0.009,0.007-0.018,0.015-0.026,0.021
	c-0.138,0.113-0.273,0.23-0.404,0.352c-0.13,0.12-0.258,0.246-0.381,0.374c-0.004,0.003-0.006,0.006-0.009,0.01
	c-0.004,0.002-0.007,0.006-0.009,0.008c-0.056,0.059-0.109,0.116-0.161,0.174c-0.006,0.007-0.013,0.014-0.019,0.02
	c-0.006,0.007-0.012,0.014-0.018,0.021c-0.051,0.055-0.1,0.112-0.147,0.168c-0.014,0.017-0.028,0.034-0.042,0.05
	c-0.048,0.056-0.094,0.113-0.14,0.171c-0.015,0.018-0.028,0.035-0.042,0.053c-0.028,0.037-0.057,0.073-0.085,0.112
	c-0.018,0.021-0.032,0.042-0.05,0.063c-0.012,0.017-0.025,0.035-0.038,0.052c-0.012,0.018-0.025,0.035-0.037,0.052
	c-0.031,0.044-0.063,0.087-0.094,0.131c-0.011,0.016-0.021,0.031-0.032,0.046c-0.044,0.065-0.087,0.131-0.13,0.195
	c-0.008,0.012-0.016,0.022-0.022,0.034c-0.045,0.071-0.09,0.142-0.133,0.214c-0.061,0.1-0.118,0.202-0.175,0.304
	c-0.023,0.042-0.046,0.083-0.068,0.125c-0.018,0.032-0.034,0.065-0.052,0.099c-0.039,0.078-0.08,0.157-0.118,0.237
	c-0.193,0.406-0.357,0.828-0.487,1.266c-0.123,0.41-0.216,0.833-0.278,1.265c-0.06,0.414-0.091,0.836-0.091,1.266
	c0,0.118,0.003,0.234,0.007,0.35c0.001,0.038,0.004,0.075,0.005,0.111c0.005,0.081,0.009,0.16,0.016,0.237
	c0.003,0.043,0.007,0.087,0.011,0.129c0.007,0.073,0.015,0.147,0.023,0.221c0.005,0.043,0.01,0.086,0.016,0.126
	c0.011,0.081,0.022,0.162,0.036,0.242c0.006,0.033,0.01,0.064,0.015,0.099c0.019,0.108,0.04,0.216,0.063,0.324
	c0.008,0.036,0.018,0.07,0.025,0.107c0.016,0.073,0.034,0.146,0.051,0.219c0.012,0.046,0.024,0.092,0.037,0.138
	c0.017,0.062,0.033,0.123,0.052,0.184c0.014,0.05,0.029,0.097,0.043,0.144c0.019,0.061,0.039,0.119,0.058,0.179
	c0.016,0.047,0.032,0.094,0.048,0.141c0.022,0.065,0.047,0.131,0.073,0.196c0.027,0.072,0.056,0.145,0.085,0.216
	c0.024,0.06,0.049,0.12,0.075,0.179c0.022,0.052,0.045,0.102,0.069,0.151c0.022,0.049,0.044,0.097,0.067,0.145
	c0.025,0.052,0.051,0.104,0.076,0.153c0.023,0.047,0.047,0.092,0.07,0.136c0.027,0.054,0.055,0.104,0.083,0.155
	c0.024,0.042,0.05,0.086,0.074,0.129c0.03,0.051,0.059,0.103,0.089,0.152l0,0c0.049,0.08,0.098,0.16,0.149,0.239
	c0.022,0.034,0.047,0.069,0.07,0.104c0.038,0.058,0.077,0.114,0.116,0.171c0.021,0.029,0.04,0.06,0.062,0.089
	c0.062,0.084,0.123,0.168,0.188,0.251s0.132,0.166,0.198,0.247c0.203,0.243,0.418,0.475,0.646,0.696
	c0.23,0.224,0.473,0.434,0.726,0.631c0.085,0.066,0.17,0.13,0.257,0.193c0.365,0.263,0.75,0.499,1.152,0.705
	c1.209,0.62,2.577,0.97,4.026,0.97c4.884,0,8.858-3.974,8.858-8.858C41.858,28.6,40.795,26.316,39.093,24.701z M36.594,30.164
	L33,33.759l-0.202,0.202c-0.247,0.247-0.57,0.372-0.895,0.372c-0.323,0-0.647-0.125-0.895-0.372l-0.492-0.49l-1.196-1.196
	c-0.493-0.494-0.493-1.296,0-1.79c0.495-0.494,1.297-0.494,1.79,0l0.793,0.792L33,30.18l1.805-1.805
	c0.074-0.075,0.157-0.136,0.241-0.188c0.487-0.294,1.13-0.232,1.548,0.188C37.089,28.869,37.089,29.671,36.594,30.164z"/>
</svg>
