<?xml version="1.0" encoding="utf-8"?>
<!-- Generator: Adobe Illustrator 16.0.0, SVG Export Plug-In . SVG Version: 6.00 Build 0)  -->
<!DOCTYPE svg PUBLIC "-//W3C//DTD SVG 1.1//EN" "http://www.w3.org/Graphics/SVG/1.1/DTD/svg11.dtd">
<svg version="1.1" id="Layer_1" xmlns="http://www.w3.org/2000/svg" xmlns:xlink="http://www.w3.org/1999/xlink" x="0px" y="0px"
	 width="48px" height="48px" viewBox="0 0 48 48" enable-background="new 0 0 48 48" xml:space="preserve">
<title>Grow logo</title>
<path fill="#29ABE2" d="M25.417,32.233c0-5.044,4.1-9.142,9.143-9.142c2.396,0,4.54,0.945,6.147,2.428
	c0.095-0.789,0.189-1.608,0.189-2.428c0-10.119-8.195-18.284-18.283-18.284c-10.089,0-18.285,8.196-18.285,18.284
	c0,10.119,8.196,18.284,18.285,18.284c2.521,0,4.916-0.505,7.091-1.419C27.12,38.318,25.417,35.48,25.417,32.233z"/>
<path fill="#29ABE2" d="M40.707,25.488c-0.851,6.525-5.169,11.979-11.033,14.438c1.418,0.883,3.058,1.418,4.855,1.418
	c5.044,0,9.142-4.098,9.142-9.142C43.702,29.555,42.536,27.158,40.707,25.488z"/>
<path fill="#155671" d="M40.707,25.488c-1.639-1.482-3.782-2.428-6.147-2.428c-5.043,0-9.143,4.098-9.143,9.142
	c0,3.247,1.703,6.116,4.287,7.724C35.568,37.467,39.856,32.045,40.707,25.488z"/>
</svg>
