<?xml version="1.0" encoding="utf-8"?>
<!-- Generator: Adobe Illustrator 16.0.0, SVG Export Plug-In . SVG Version: 6.00 Build 0)  -->
<!DOCTYPE svg PUBLIC "-//W3C//DTD SVG 1.1//EN" "http://www.w3.org/Graphics/SVG/1.1/DTD/svg11.dtd">
<svg version="1.1" id="Layer_1" xmlns="http://www.w3.org/2000/svg" xmlns:xlink="http://www.w3.org/1999/xlink" x="0px" y="0px"
	 width="48px" height="48px" viewBox="0 0 48 48" enable-background="new 0 0 48 48" xml:space="preserve">
<g>
	<path fill="#2CE56A" d="M24.323,31.635c0-4.866,3.953-8.819,8.82-8.819c2.311,0,4.379,0.912,5.93,2.342
		c0.092-0.76,0.182-1.551,0.182-2.342c0-9.762-7.906-17.639-17.639-17.639c-9.731,0-17.639,7.906-17.639,17.639
		c0,9.763,7.907,17.639,17.639,17.639c2.434,0,4.745-0.486,6.842-1.368C25.965,37.505,24.323,34.768,24.323,31.635z"/>
	<path fill="#2CE56A" d="M39.072,25.126c-0.822,6.297-4.988,11.558-10.645,13.93c1.367,0.852,2.949,1.369,4.684,1.369
		c4.865,0,8.818-3.954,8.818-8.82C41.959,29.05,40.836,26.739,39.072,25.126z"/>
	<path fill="#1DAA49" d="M39.072,25.126c-1.582-1.428-3.65-2.341-5.93-2.341c-4.867,0-8.82,3.954-8.82,8.819
		c0,3.133,1.642,5.9,4.134,7.451C34.115,36.684,38.25,31.452,39.072,25.126z"/>
</g>
</svg>
