<?xml version="1.0" encoding="utf-8"?>
<!-- Generator: Adobe Illustrator 16.0.0, SVG Export Plug-In . SVG Version: 6.00 Build 0)  -->
<!DOCTYPE svg PUBLIC "-//W3C//DTD SVG 1.1//EN" "http://www.w3.org/Graphics/SVG/1.1/DTD/svg11.dtd">
<svg version="1.1" id="Layer_1" xmlns="http://www.w3.org/2000/svg" xmlns:xlink="http://www.w3.org/1999/xlink" x="0px" y="0px"
	 width="48px" height="48px" viewBox="0 0 48 48" enable-background="new 0 0 48 48" xml:space="preserve">
<g>
	<path fill="#B9B9B9" d="M40.615,23.087H8.803c-0.081,0-0.163,0.068-0.163,0.162v3.813c0,0.081,0.067,0.162,0.163,0.162h31.813
		c0.081,0,0.162-0.067,0.162-0.162v-3.813C40.777,23.155,40.709,23.087,40.615,23.087L40.615,23.087z M40.615,23.087"/>
	<path fill="#B9B9B9" d="M30.095,29.995H8.803c-0.081,0-0.163,0.067-0.163,0.163v3.812c0,0.081,0.067,0.162,0.163,0.162h21.292
		c0.081,0,0.162-0.067,0.162-0.162v-3.812C30.243,30.063,30.176,29.995,30.095,29.995L30.095,29.995z M30.095,29.995"/>
</g>
</svg>
