<?xml version="1.0" encoding="utf-8"?>
<!-- Generator: Adobe Illustrator 16.0.0, SVG Export Plug-In . SVG Version: 6.00 Build 0)  -->
<!DOCTYPE svg PUBLIC "-//W3C//DTD SVG 1.1//EN" "http://www.w3.org/Graphics/SVG/1.1/DTD/svg11.dtd">
<svg version="1.1" id="Layer_1" xmlns="http://www.w3.org/2000/svg" xmlns:xlink="http://www.w3.org/1999/xlink" x="0px" y="0px"
	 width="70px" height="70px" viewBox="0 0 70 70" enable-background="new 0 0 70 70" xml:space="preserve">
<path fill="#FFFFFF" d="M38.967,23.421c0-1.609,1.308-2.916,2.916-2.916c0.765,0,1.449,0.302,1.961,0.774
	c0.031-0.251,0.062-0.513,0.062-0.774c0-3.229-2.615-5.833-5.833-5.833c-3.219,0-5.833,2.615-5.833,5.833
	c0,3.228,2.615,5.833,5.833,5.833c0.804,0,1.568-0.161,2.263-0.453C39.51,25.362,38.967,24.457,38.967,23.421z"/>
<path fill="#FFFFFF" d="M43.844,21.269c-0.271,2.082-1.648,3.822-3.519,4.606c0.452,0.281,0.976,0.453,1.549,0.453
	c1.608,0,2.916-1.308,2.916-2.917C44.8,22.566,44.428,21.802,43.844,21.269z"/>
<path fill="#FFFFFF" d="M66.553,24.266c0,1.127-0.935,2.052-2.081,2.052c-1.127,0-2.052-0.915-2.052-2.052
	c0-1.146,0.925-2.082,2.052-2.082C65.639,22.194,66.553,23.099,66.553,24.266z M31.374,15.285c0.091,0.13,0.171,0.352,0.05,0.644
	v0.02l-0.644,1.317c-0.121,0.262-0.342,0.413-0.604,0.413c-0.101,0-0.211-0.021-0.312-0.071h-0.01c-0.13-0.07-0.502-0.17-0.824-0.17
	c-1.378,0-2.072,0.955-2.212,1.167v6.738c0,0.714-0.624,0.714-0.926,0.714h-1.277c-0.382,0-0.714-0.332-0.714-0.714v-9.715
	c0-0.382,0.332-0.714,0.714-0.714h0.774c0.292,0,0.573,0.231,0.644,0.523l0.181,0.553c0.442-0.493,1.448-1.337,3.057-1.337
	C29.674,14.651,30.982,14.702,31.374,15.285L31.374,15.285z M61.605,15.194c0.11,0.171,0.11,0.392,0.009,0.614l-3.137,10.107
	c-0.08,0.252-0.342,0.402-0.673,0.402h-0.111c-0.292,0-0.554-0.15-0.644-0.362l-3.128-6.789l-3.098,6.789
	c-0.091,0.221-0.332,0.362-0.614,0.362h-0.13c-0.302,0-0.563-0.161-0.644-0.412l-3.179-10.097c-0.1-0.231-0.1-0.453,0.011-0.624
	s0.302-0.262,0.553-0.262h1.448c0.262,0,0.594,0.181,0.674,0.463l1.649,5.451l2.665-5.803c0.091-0.222,0.362-0.393,0.644-0.393
	h0.161c0.332,0,0.563,0.191,0.644,0.393l2.635,5.813l1.619-5.461v-0.02c0.191-0.443,0.704-0.443,1.017-0.443h1.045
	C61.283,14.923,61.495,15.023,61.605,15.194L61.605,15.194z M20.362,20.675c0.01,1.066,0.01,2.173,0.01,3.249
	c0,0.201-0.141,0.473-0.292,0.593h-0.02c-0.111,0.071-2.856,1.8-6.758,1.8c-2.635,0-5.12-1.016-6.97-2.856
	c-1.86-1.851-2.886-4.325-2.886-6.97s1.026-5.129,2.886-7c1.86-1.861,4.334-2.886,6.97-2.886c2.464,0,4.646,0.834,6.647,2.544
	l0.01,0.01l0.01,0.01c0.141,0.141,0.221,0.322,0.231,0.502c0.01,0.202-0.061,0.383-0.201,0.523l-0.604,0.634
	c-0.201,0.201-0.402,0.413-0.604,0.624c-0.141,0.151-0.292,0.231-0.462,0.231s-0.342-0.081-0.523-0.241
	c-1.287-1.126-2.907-1.771-4.425-1.771c-1.77,0-3.419,0.714-4.646,2.012c-1.217,1.277-1.881,2.967-1.881,4.747
	c0,3.721,2.927,6.749,6.527,6.749c1.951,0,3.359-0.633,3.812-0.845h0.01V19.66H14.78c-0.402,0-0.714-0.302-0.714-0.684v-1.559
	c0-0.402,0.302-0.714,0.714-0.714h4.877c0.373,0,0.684,0.322,0.684,0.714C20.341,18.503,20.352,19.609,20.362,20.675L20.362,20.675z
	"/>
</svg>
