<?xml version="1.0" encoding="utf-8"?>
<!-- Generator: Adobe Illustrator 16.0.0, SVG Export Plug-In . SVG Version: 6.00 Build 0)  -->
<!DOCTYPE svg PUBLIC "-//W3C//DTD SVG 1.1//EN" "http://www.w3.org/Graphics/SVG/1.1/DTD/svg11.dtd">
<svg version="1.1" id="Layer_1" xmlns="http://www.w3.org/2000/svg" xmlns:xlink="http://www.w3.org/1999/xlink" x="0px" y="0px"
	 width="48px" height="48px" viewBox="0 0 48 48" enable-background="new 0 0 48 48" xml:space="preserve">
<g>
	<g>
		<defs>
			<rect id="SVGID_1_" x="14.47" y="3.818" width="19.458" height="39.057"/>
		</defs>
		<clipPath id="SVGID_2_">
			<use xlink:href="#SVGID_1_"  overflow="visible"/>
		</clipPath>
		<path clip-path="url(#SVGID_2_)" fill="#34AFE2" d="M32.352,19.055l-0.769-0.768c0.671-0.261,1.146-0.913,1.146-1.673v-2.444
			c0-0.99-0.805-1.795-1.796-1.795h-0.494c-0.592-1.524-1.736-2.803-3.193-3.546c-0.318-0.163-0.364-0.556-0.244-0.844
			c0.213-0.515,0.277-1.085,0.188-1.647c-0.21-1.293-1.309-2.343-2.612-2.497c-0.863-0.102-1.726,0.167-2.37,0.739
			c-0.644,0.572-1.014,1.395-1.014,2.256c0,0.408,0.081,0.804,0.239,1.176c0.137,0.322,0.022,0.675-0.266,0.823
			c-1.456,0.746-2.599,2.021-3.188,3.54h-0.491c-0.99,0-1.795,0.805-1.795,1.795v2.444c0,0.761,0.476,1.413,1.146,1.673
			l-0.769,0.768c-1.031,1.031-1.6,2.403-1.6,3.862v15.698c0,2.339,1.902,4.241,4.24,4.241h11.001c2.339,0,4.238-1.902,4.238-4.241
			V22.917C33.949,21.458,33.383,20.086,32.352,19.055L32.352,19.055z M21.688,9.854c0.831-0.425,1.173-1.41,0.798-2.291
			c-0.097-0.23-0.148-0.475-0.148-0.728c0-0.534,0.23-1.044,0.629-1.399c0.405-0.36,0.929-0.523,1.474-0.459
			c0.807,0.096,1.485,0.745,1.615,1.542c0.057,0.353,0.017,0.707-0.114,1.026c-0.371,0.897-0.036,1.887,0.782,2.304
			c1.073,0.548,1.942,1.445,2.467,2.525h-9.965C19.749,11.299,20.616,10.403,21.688,9.854L21.688,9.854z M16.838,14.169
			c0-0.358,0.292-0.65,0.649-0.65h0.893c0,0,0.001,0,0.002,0c0,0,0,0,0.001,0h12.548c0.36,0,0.65,0.292,0.65,0.65v2.444
			c0,0.358-0.29,0.649-0.65,0.649H17.488c-0.357,0-0.649-0.291-0.649-0.649V14.169z M32.805,38.615c0,1.706-1.388,3.095-3.094,3.095
			h-11c-1.707,0-3.094-1.389-3.094-3.095v-1.872h2.483c0.316,0,0.573-0.255,0.573-0.572c0-0.315-0.257-0.573-0.573-0.573h-2.483
			v-1.909h1.26c0.316,0,0.573-0.257,0.573-0.573s-0.257-0.573-0.573-0.573h-1.26v-1.909h2.483c0.316,0,0.573-0.257,0.573-0.574
			c0-0.314-0.257-0.572-0.573-0.572h-2.483v-1.909h1.26c0.316,0,0.573-0.257,0.573-0.573c0-0.315-0.257-0.573-0.573-0.573h-1.26
			v-1.91h2.483c0.316,0,0.573-0.256,0.573-0.573c0-0.316-0.257-0.572-0.573-0.572h-2.483v-0.458c0-1.153,0.449-2.237,1.264-3.053
			l1.456-1.456h11.748l1.457,1.456c0.814,0.816,1.264,1.9,1.264,3.053V38.615z M32.805,38.615"/>
	</g>
	<path fill="#34AFE2" d="M30.933,24.597c-0.315,0-0.571,0.256-0.571,0.573v7.945c0,0.316,0.256,0.573,0.571,0.573
		c0.317,0,0.573-0.257,0.573-0.573V25.17C31.506,24.854,31.25,24.597,30.933,24.597L30.933,24.597z M30.933,24.597"/>
	<path fill="#34AFE2" d="M29.813,20.783c-0.225,0.225-0.225,0.587,0,0.812c0.352,0.354,0.548,0.823,0.548,1.323
		c0,0.316,0.256,0.572,0.571,0.572c0.317,0,0.573-0.256,0.573-0.572c0-0.806-0.313-1.565-0.883-2.135
		C30.398,20.56,30.035,20.56,29.813,20.783L29.813,20.783z M29.813,20.783"/>
	<path fill="#34AFE2" d="M29.101,15.964h0.61c0.316,0,0.574-0.256,0.574-0.573c0-0.316-0.258-0.573-0.574-0.573h-0.61
		c-0.317,0-0.574,0.257-0.574,0.573C28.526,15.708,28.783,15.964,29.101,15.964L29.101,15.964z M29.101,15.964"/>
	<path fill="#34AFE2" d="M22.377,15.964h4.279c0.314,0,0.572-0.256,0.572-0.573c0-0.316-0.258-0.573-0.572-0.573h-4.279
		c-0.317,0-0.573,0.257-0.573,0.573C21.804,15.708,22.061,15.964,22.377,15.964L22.377,15.964z M22.377,15.964"/>
</g>
</svg>
