<?xml version="1.0" encoding="utf-8"?>
<!-- Generator: Adobe Illustrator 16.0.0, SVG Export Plug-In . SVG Version: 6.00 Build 0)  -->
<!DOCTYPE svg PUBLIC "-//W3C//DTD SVG 1.1//EN" "http://www.w3.org/Graphics/SVG/1.1/DTD/svg11.dtd">
<svg version="1.1" id="Layer_1" xmlns="http://www.w3.org/2000/svg" xmlns:xlink="http://www.w3.org/1999/xlink" x="0px" y="0px"
	 width="48px" height="48px" viewBox="0 0 48 48" enable-background="new 0 0 48 48" xml:space="preserve">
<g>
	<g>
		<defs>
			<rect id="SVGID_1_" x="3.927" y="4.494" width="39.146" height="39.012"/>
		</defs>
		<clipPath id="SVGID_2_">
			<use xlink:href="#SVGID_1_"  overflow="visible"/>
		</clipPath>
		<path clip-path="url(#SVGID_2_)" fill="#40C5E7" d="M10.998,35.24l-1.636,1.635c-0.344,0.346-0.344,0.861,0,1.205
			c0.173,0.174,0.388,0.26,0.604,0.26c0.216,0,0.43-0.086,0.603-0.26l1.635-1.635c0.344-0.344,0.344-0.861,0-1.205
			C11.859,34.896,11.342,34.896,10.998,35.24L10.998,35.24z M10.998,35.24"/>
		<path clip-path="url(#SVGID_2_)" fill="#40C5E7" d="M41.604,14.665l-0.816-1.076c-0.13-0.216-0.389-0.302-0.646-0.346
			c-0.258,0-0.473,0.086-0.646,0.258l-4.865,4.822c-0.646,0.646-1.764,0.646-2.454,0l-3.055-3.056c-0.646-0.647-0.646-1.767,0-2.454
			l4.863-4.865c0.172-0.172,0.258-0.43,0.258-0.688s-0.128-0.474-0.344-0.646L33.08,6.053c-2.582-1.893-6.025-1.893-8.608-0.042
			l-2.023,1.464c-3.186,2.281-4.649,6.328-3.659,10.072l0.516,2.023L5.703,33.217c-2.367,2.367-2.367,6.199,0,8.523
			c1.162,1.162,2.711,1.766,4.262,1.766c1.55,0,3.099-0.604,4.262-1.766l13.645-13.646l2.195,0.646
			c3.874,1.119,8.007-0.344,10.331-3.615l1.336-1.851C43.541,20.733,43.498,17.204,41.604,14.665L41.604,14.665z M40.313,22.284
			l-1.334,1.851c-1.895,2.668-5.295,3.831-8.438,2.926l-2.669-0.775c-0.301-0.086-0.646,0-0.86,0.217l-13.99,13.99
			c-1.68,1.678-4.435,1.678-6.114,0c-1.679-1.678-1.679-4.436,0-6.113l13.99-13.99c0.216-0.216,0.301-0.518,0.216-0.818
			l-0.646-2.497c-0.818-3.056,0.387-6.413,2.971-8.264l2.022-1.464c0.99-0.688,2.11-1.033,3.271-1.033
			c1.163,0,2.325,0.345,3.315,1.075l-4.176,4.176c-1.292,1.378-1.292,3.53,0,4.864l3.056,3.057c1.379,1.291,3.531,1.291,4.865,0
			l4.176-4.133l0.215,0.301C41.689,17.633,41.689,20.346,40.313,22.284L40.313,22.284z M40.313,22.284"/>
	</g>
</g>
</svg>
