<?xml version="1.0" encoding="utf-8"?>
<!-- Generator: Adobe Illustrator 16.0.0, SVG Export Plug-In . SVG Version: 6.00 Build 0)  -->
<!DOCTYPE svg PUBLIC "-//W3C//DTD SVG 1.1//EN" "http://www.w3.org/Graphics/SVG/1.1/DTD/svg11.dtd">
<svg version="1.1" id="Layer_1" xmlns="http://www.w3.org/2000/svg" xmlns:xlink="http://www.w3.org/1999/xlink" x="0px" y="0px"
	 width="48px" height="48px" viewBox="0 0 48 48" enable-background="new 0 0 48 48" xml:space="preserve">
<path fill="none" stroke="#34AFE2" stroke-width="1.44" stroke-linecap="round" stroke-linejoin="round" stroke-miterlimit="22.9256" d="
	M28.482,12.941v-2.386c0-0.37-0.149-0.706-0.391-0.948c-0.241-0.24-0.578-0.391-0.947-0.391h-6.29c-0.37,0-0.705,0.15-0.948,0.391
	l0.004,0.004c-0.242,0.243-0.394,0.578-0.394,0.944v2.386 M34.955,24.889V13.476h3.92c1.172,0,2.133,0.963,2.133,2.133v22.329
	c0,1.171-0.963,2.134-2.133,2.134h-3.92v-9.47 M32.416,23.475l-3.862,6.67l4.764,2.758l3.862-6.669
	C35.818,25.446,34.033,24.412,32.416,23.475L32.416,23.475z M34.955,40.071H13.044 M12.841,13.476h22.318 M9.126,13.476h3.918
	v26.596H9.126c-1.172,0-2.134-0.96-2.134-2.134V15.608C6.992,14.436,7.952,13.476,9.126,13.476L9.126,13.476z M22.177,25.989
	l-4.85-2.241l-1.6,3.464l4.849,2.24C21.033,28.464,21.633,27.165,22.177,25.989L22.177,25.989z"/>
</svg>
