<svg class="header__logo-svg" xmlns="http://www.w3.org/2000/svg" version="1.1" x="0" y="0" viewBox="0 0 627.5 196.2" xml:space="preserve"><style type="text/css">
		.st0{fill:#29ABE2;}
		.st1{fill:#155671;}
		.st2{fill:#1E1E1E;}
	</style><title>Grow logo</title><path class="st0" d="M353.2 167.2c0-16 13-29 29-29 7.6 0 14.4 3 19.5 7.7 0.3-2.5 0.6-5.1 0.6-7.7 0-32.1-26-58-58-58s-58 26-58 58c0 32.1 26 58 58 58 8 0 15.6-1.6 22.5-4.5C358.6 186.5 353.2 177.5 353.2 167.2z"></path><path class="st0" d="M401.7 145.8c-2.7 20.7-16.4 38-35 45.8 4.5 2.8 9.7 4.5 15.4 4.5 16 0 29-13 29-29C411.2 158.7 407.5 151.1 401.7 145.8z"></path><path class="st1" d="M401.7 145.8c-5.2-4.7-12-7.7-19.5-7.7 -16 0-29 13-29 29 0 10.3 5.4 19.4 13.6 24.5C385.4 183.8 399 166.6 401.7 145.8z"></path><path class="st2" d="M627.5 175.6c0 11.2-9.3 20.4-20.7 20.4 -11.2 0-20.4-9.1-20.4-20.4 0-11.4 9.2-20.7 20.4-20.7C618.4 155 627.5 164 627.5 175.6zM277.7 86.3c0.9 1.3 1.7 3.5 0.5 6.4v0.2l-6.4 13.1c-1.2 2.6-3.4 4.1-6 4.1 -1 0-2.1-0.2-3.1-0.7h-0.1c-1.3-0.7-5-1.7-8.2-1.7 -13.7 0-20.6 9.5-22 11.6v67c0 7.1-6.2 7.1-9.2 7.1h-12.7c-3.8 0-7.1-3.3-7.1-7.1V89.7c0-3.8 3.3-7.1 7.1-7.1h7.7c2.9 0 5.7 2.3 6.4 5.2l1.8 5.5c4.4-4.9 14.4-13.3 30.4-13.3C260.8 80 273.8 80.5 277.7 86.3L277.7 86.3zM578.3 85.4c1.1 1.7 1.1 3.9 0.1 6.1L547.2 192c-0.8 2.5-3.4 4-6.7 4h-1.1c-2.9 0-5.5-1.5-6.4-3.6l-31.1-67.5 -30.8 67.5c-0.9 2.2-3.3 3.6-6.1 3.6h-1.3c-3 0-5.6-1.6-6.4-4.1L425.7 91.5c-1-2.3-1-4.5 0.1-6.2s3-2.6 5.5-2.6h14.4c2.6 0 5.9 1.8 6.7 4.6l16.4 54.2 26.5-57.7c0.9-2.2 3.6-3.9 6.4-3.9h1.6c3.3 0 5.6 1.9 6.4 3.9l26.2 57.8L552 87.3v-0.2c1.9-4.4 7-4.4 10.1-4.4h10.4C575.1 82.7 577.2 83.7 578.3 85.4L578.3 85.4zM168.2 139.9c0.1 10.6 0.1 21.6 0.1 32.3 0 2-1.4 4.7-2.9 5.9h-0.2c-1.1 0.7-28.4 17.9-67.2 17.9 -26.2 0-50.9-10.1-69.3-28.4C10.2 149.2 0 124.6 0 98.3s10.2-51 28.7-69.6C47.2 10.2 71.8 0 98 0c24.5 0 46.2 8.3 66.1 25.3l0.1 0.1 0.1 0.1c1.4 1.4 2.2 3.2 2.3 5 0.1 2-0.6 3.8-2 5.2l-6 6.3c-2 2-4 4.1-6 6.2 -1.4 1.5-2.9 2.3-4.6 2.3 -1.7 0-3.4-0.8-5.2-2.4 -12.8-11.2-28.9-17.6-44-17.6 -17.6 0-34 7.1-46.2 20C40.5 63.2 33.9 80 33.9 97.7c0 37 29.1 67.1 64.9 67.1 19.4 0 33.4-6.3 37.9-8.4h0.1v-26.6h-24.1c-4 0-7.1-3-7.1-6.8v-15.5c0-4 3-7.1 7.1-7.1h48.5c3.7 0 6.8 3.2 6.8 7.1C168 118.3 168.1 129.3 168.2 139.9L168.2 139.9z"></path></svg>
