<?xml version="1.0" encoding="utf-8"?>
<!-- Generator: Adobe Illustrator 16.0.0, SVG Export Plug-In . SVG Version: 6.00 Build 0)  -->
<!DOCTYPE svg PUBLIC "-//W3C//DTD SVG 1.1//EN" "http://www.w3.org/Graphics/SVG/1.1/DTD/svg11.dtd">
<svg version="1.1" id="Layer_1" xmlns="http://www.w3.org/2000/svg" xmlns:xlink="http://www.w3.org/1999/xlink" x="0px" y="0px"
	 width="48px" height="48px" viewBox="0 0 48 48" enable-background="new 0 0 48 48" xml:space="preserve">
<path fill="#2AAAE2" d="M24.645,26.793c0-1.443,1.174-2.615,2.615-2.615c0.687,0,1.299,0.271,1.76,0.694
	c0.026-0.227,0.054-0.46,0.054-0.694c0-2.896-2.345-5.231-5.231-5.231s-5.232,2.345-5.232,5.231c0,2.896,2.345,5.23,5.232,5.23
	c0.721,0,1.406-0.144,2.028-0.406C25.132,28.534,24.645,27.723,24.645,26.793z"/>
<path fill="#2AAAE2" d="M29.02,24.863c-0.244,1.866-1.48,3.427-3.157,4.131c0.405,0.252,0.874,0.405,1.389,0.405
	c1.443,0,2.615-1.172,2.615-2.615C29.876,26.026,29.542,25.341,29.02,24.863z"/>
<path fill="#185772" d="M29.02,24.863c-0.47-0.425-1.083-0.695-1.76-0.695c-1.441,0-2.615,1.173-2.615,2.616
	c0,0.93,0.487,1.75,1.226,2.21C27.549,28.29,28.775,26.74,29.02,24.863z"/>
<path fill="#1E1E1E" d="M17.086,24.35c0.009,0.955,0.009,1.948,0.009,2.912c0,0.181-0.127,0.425-0.262,0.532h-0.017
	c-0.1,0.063-2.563,1.614-6.062,1.614c-2.363,0-4.591-0.91-6.25-2.561c-1.668-1.66-2.588-3.879-2.588-6.25
	c0-2.373,0.92-4.601,2.588-6.278c1.669-1.668,3.887-2.588,6.25-2.588c2.21,0,4.167,0.749,5.962,2.282l0.009,0.009l0.009,0.009
	c0.127,0.126,0.198,0.288,0.208,0.451c0.009,0.181-0.054,0.343-0.181,0.469l-0.541,0.568c-0.181,0.18-0.361,0.37-0.541,0.56
	c-0.126,0.135-0.262,0.208-0.415,0.208s-0.306-0.072-0.469-0.216c-1.155-1.011-2.607-1.588-3.969-1.588
	c-1.587,0-3.066,0.641-4.167,1.804c-1.091,1.146-1.687,2.661-1.687,4.257c0,3.336,2.625,6.051,5.854,6.051
	c1.75,0,3.012-0.567,3.418-0.757h0.009v-2.399H12.08c-0.361,0-0.641-0.27-0.641-0.613v-1.397c0-0.361,0.271-0.642,0.641-0.642h4.374
	c0.335,0,0.614,0.289,0.614,0.642C17.068,22.401,17.077,23.393,17.086,24.35L17.086,24.35z"/>
<g>
	<path fill="#1E1E1E" d="M39.195,20.213c0.778,0.694,1.168,1.692,1.168,2.991v5.674c0,0.143-0.052,0.265-0.154,0.367
		c-0.104,0.104-0.226,0.154-0.367,0.154h-1.467c-0.142,0-0.264-0.051-0.366-0.154c-0.104-0.103-0.154-0.225-0.154-0.367v-0.637
		c-0.297,0.412-0.705,0.74-1.226,0.984c-0.521,0.244-1.148,0.367-1.882,0.367c-1.081,0-1.937-0.28-2.567-0.84
		c-0.63-0.56-0.945-1.283-0.945-2.171c0-0.862,0.306-1.548,0.917-2.056c0.61-0.509,1.463-0.859,2.557-1.052l3.146-0.54
		c0-0.489-0.164-0.853-0.492-1.091c-0.328-0.238-0.77-0.357-1.322-0.357c-0.296,0-0.537,0.042-0.724,0.125
		c-0.187,0.084-0.37,0.209-0.55,0.376c-0.193,0.18-0.405,0.27-0.638,0.27h-1.795c-0.128,0-0.234-0.042-0.318-0.125
		c-0.083-0.083-0.119-0.183-0.105-0.299c0.077-0.399,0.279-0.804,0.607-1.216s0.791-0.756,1.39-1.033
		c0.599-0.276,1.31-0.415,2.133-0.415C37.365,19.17,38.417,19.518,39.195,20.213z M37.854,24.922l-2.625,0.463
		c-0.515,0.091-0.892,0.223-1.129,0.396c-0.238,0.174-0.357,0.409-0.357,0.705c0,0.257,0.132,0.453,0.396,0.589
		c0.264,0.135,0.596,0.202,0.994,0.202c0.566,0,1.055-0.103,1.467-0.309s0.724-0.473,0.937-0.801
		c0.212-0.328,0.318-0.679,0.318-1.052V24.922z"/>
	<path fill="#1E1E1E" d="M45.285,29.245c-0.104,0.104-0.226,0.154-0.367,0.154h-1.467c-0.142,0-0.264-0.051-0.366-0.154
		c-0.104-0.103-0.154-0.225-0.154-0.367v-12.66c0-0.142,0.051-0.264,0.154-0.367c0.103-0.103,0.225-0.155,0.366-0.155h1.467
		c0.142,0,0.264,0.052,0.367,0.155c0.103,0.103,0.154,0.225,0.154,0.367v12.66C45.439,29.021,45.388,29.143,45.285,29.245z"/>
</g>
</svg>
